<svg width="102" height="55" viewBox="0 0 102 55" fill="none" xmlns="http://www.w3.org/2000/svg">
<g clip-path="url(#clip0_80_2110)">
<path d="M11.0389 28.7746C11.7462 28.7746 12.5065 28.6398 13.3906 28.3028C13.6559 28.2185 13.8327 28.1848 14.0626 28.1848C16.3612 28.1848 15.5125 28.1848 18.3947 28.2691C28.7033 28.2691 36.6426 21.8827 36.6426 13.5923C36.6426 5.43666 30.7721 0.229858 22.6561 0.229858C15.4771 0.229858 9.80119 4.20657 9.80119 10.1211C9.80119 13.8956 12.1529 17.0129 16.3082 18.7148C16.5911 18.8328 16.6795 19.0013 16.5381 19.2541C15.6893 21.3267 14.5046 23.4835 13.2492 25.0001C13.1254 25.1686 12.8955 25.2191 12.6834 25.1686L12.3651 25.1349C11.534 24.9664 10.6853 24.8316 9.83655 24.8316C8.24516 24.8316 7.39642 25.4719 7.39642 26.5672C7.39642 27.8478 8.8994 28.7746 11.0389 28.7746ZM17.1216 24.9158C18.041 23.3656 18.8014 21.8322 19.5617 20.1471C19.6501 19.9281 19.8269 19.8101 20.0922 19.8101C23.4164 19.9281 25.7151 19.5068 28.5619 18.1082C30.0295 17.4005 29.446 14.8224 27.3595 15.5807C25.5913 16.221 23.5402 16.9287 21.3829 16.8107C21.0647 16.8107 20.9763 16.5917 21.0647 16.3052C21.9134 14.0136 23.2396 9.61558 23.6816 8.35179C23.9115 7.79573 24.0883 7.29021 24.0883 6.83525C24.0883 6.11068 23.5048 5.60516 22.6561 5.60516C21.8604 5.60516 21.2415 6.36344 20.658 8.09904C20.1806 9.49763 18.8898 13.3395 18.0057 15.7829C17.8642 16.0862 17.6874 16.1704 17.3868 16.0525C14.593 14.7718 12.9486 12.6655 12.9486 10.1211C12.9486 6.36344 16.7679 3.14499 22.3908 3.14499C28.9686 3.14499 33.4775 7.03746 33.4775 13.4575C33.4775 21.0739 25.4498 25.9437 17.3868 25.4382C17.0332 25.4382 16.9447 25.1686 17.1216 24.9158Z" fill="#FF0000"/>
<path d="M52.5441 28.5218C56.1512 28.5218 59.2986 25.0843 62.9412 20.0629C64.3911 18.024 61.8272 16.6759 60.4126 18.4621C57.831 21.6637 55.0726 25.4382 52.9154 25.4382C51.8899 25.4382 51.271 24.4103 51.271 23.0623C51.271 20.5178 53.1276 16.6422 54.8958 13.4238C55.6561 12.0757 54.4184 10.9299 53.3928 10.9299C52.827 10.9299 52.0667 11.3512 51.1295 12.9183C51.0058 13.171 50.7759 13.2047 50.5107 13.0868C49.715 12.6655 48.601 12.497 47.7169 12.497C42.7836 12.497 38.0978 17.6869 38.0978 22.8095C38.0978 25.2191 40.0429 27.0727 42.6598 27.0727C43.986 27.0727 45.8603 26.5672 47.8053 24.2418C48.0705 23.989 48.212 24.0396 48.2473 24.326C48.4772 26.0279 49.6619 28.5218 52.5441 28.5218ZM43.1549 24.1575C42.4299 24.1575 41.8641 23.7363 41.6873 22.5904C41.2806 20.0966 44.3396 15.4121 47.3632 15.4121C47.8937 15.4121 48.654 15.5301 49.2199 15.8334C49.4851 15.9513 49.5381 16.1704 49.4497 16.3895C48.6894 18.2767 45.984 24.1575 43.1549 24.1575Z" fill="#FF0000"/>
<path d="M79.9674 18.4621C77.0853 22.1692 74.2031 25.6404 70.8612 25.6404C68.421 25.6404 67.4485 24.1575 67.4485 21.4615C67.4485 18.3273 68.2973 14.0135 69.7649 11.1827C69.8002 11.0984 69.8002 11.0479 69.8533 11.0142C69.9417 10.8793 70.0655 10.8456 70.2953 10.8793C71.3032 11.0142 73.0891 11.2669 74.822 11.1321C76.4664 11.0142 80.0028 9.75036 79.879 7.79571C79.826 7.17224 79.3839 6.44767 78.323 6.48137C77.1737 6.53192 76.1481 7.96421 74.4683 8.21697C73.8318 8.30122 73.0007 8.30122 72.2934 8.21697C71.9398 8.18327 71.8514 7.96421 72.0636 7.67775C73.4428 5.80735 74.7335 4.2908 74.7335 3.11127C74.7335 2.04969 74.2384 0.735352 72.9477 0.735352C71.3916 0.735352 70.9496 1.96544 70.4191 3.02702C69.9417 4.03805 69.5881 5.18388 68.2973 7.29019C68.1558 7.50925 67.979 7.5935 67.7668 7.54295C67.2363 7.54295 66.6528 7.50925 66.034 7.54295C63.8944 7.5935 59.5093 8.60453 59.6861 10.8793C59.7745 11.9915 60.4818 12.2779 61.1007 12.2442C61.861 12.1937 62.7451 11.6039 63.6822 11.0984C64.5664 10.6266 65.5389 10.3738 65.9456 10.4244C65.9809 10.4244 66.034 10.4581 66.0693 10.4581C66.1577 10.4581 66.0693 10.6266 65.8925 10.9299C63.5938 14.3168 61.7726 16.7265 60.3934 18.4621C58.802 20.4841 61.1007 22.4219 62.9219 20.0629L64.0889 18.4115C64.3011 18.0745 64.6548 18.1925 64.5664 18.6306C64.3895 19.7259 64.2658 20.7032 64.2658 21.3267C64.2658 25.3371 66.6528 28.6903 70.4191 28.6903C75.3878 28.6903 78.8004 25.1686 82.496 20.0629C83.7337 18.3778 81.435 16.4737 79.9674 18.4621Z" fill="#FF0000"/>
<path d="M88.2092 28.0163C93.0011 28.0163 97.2978 24.0733 100.233 20.0629C100.993 19.0518 100.268 17.6027 99.0306 17.6027C98.8538 17.6027 98.5002 17.3499 97.7045 18.4621C95.2113 21.8827 92.3291 25.0506 88.2092 25.0506C85.3624 25.0506 83.2405 22.759 83.4527 20.3999C83.4527 20.0966 83.6472 19.9786 83.9478 20.0123C84.4783 20.0966 85.0972 20.1808 86.0697 20.1808C86.7416 20.1808 87.5903 20.0629 88.6513 19.7596C90.8262 19.1361 93.4962 16.9287 93.4962 14.3506C93.4962 12.278 91.6219 10.4581 88.7397 10.4581C83.6826 10.4581 80.0047 15.3279 80.0047 20.1471C80.0047 24.9158 83.8594 28.0163 88.2092 28.0163ZM86.1758 17.3162C85.6807 17.3162 85.1502 17.2657 84.6198 17.1814C84.3015 17.1477 84.2131 16.9287 84.3545 16.6759C85.0618 15.3279 86.7416 13.4238 88.6513 13.4238C89.6238 13.4238 90.4725 13.845 90.4725 14.6876C90.4725 16.4737 88.0324 17.3162 86.1758 17.3162Z" fill="#FF0000"/>
<path d="M6.98327 32.3787C7.69055 32.3787 8.45088 32.2439 9.33498 31.9069C9.60021 31.8226 9.77703 31.7889 10.0069 31.7889C12.3056 31.7889 11.4568 31.7889 14.339 31.8732C24.6477 31.8732 32.5869 25.4868 32.5869 17.1964C32.5869 9.04076 26.7165 3.83395 18.6004 3.83395C11.4215 3.83395 5.74552 7.81067 5.74552 13.7252C5.74552 17.4997 8.09724 20.617 12.2525 22.3189C12.5354 22.4369 12.6238 22.6054 12.4824 22.8582C11.6337 24.9308 10.449 27.0876 9.19353 28.6042C9.06975 28.7727 8.83988 28.8232 8.6277 28.7727L8.30942 28.739C7.47836 28.5705 6.62963 28.4357 5.78089 28.4357C4.1895 28.4357 3.34076 29.076 3.34076 30.1713C3.34076 31.4519 4.84374 32.3787 6.98327 32.3787ZM13.0659 28.5199C13.9854 26.9697 14.7457 25.4363 15.506 23.7512C15.5944 23.5322 15.7713 23.4142 16.0365 23.4142C19.3607 23.5322 21.6594 23.1109 24.5062 21.7123C25.9738 21.0046 25.3903 18.4265 23.3038 19.1848C21.5356 19.8251 19.4845 20.5328 17.3273 20.4148C17.009 20.4148 16.9206 20.1958 17.009 19.9093C17.8577 17.6177 19.1839 13.2197 19.6259 11.9559C19.8558 11.3998 20.0326 10.8943 20.0326 10.4393C20.0326 9.71478 19.4491 9.20926 18.6004 9.20926C17.8047 9.20926 17.1858 9.96753 16.6023 11.7031C16.1249 13.1017 14.8341 16.9436 13.95 19.387C13.8085 19.6903 13.6317 19.7745 13.3311 19.6566C10.5374 18.3759 8.89293 16.2696 8.89293 13.7252C8.89293 9.96753 12.7123 6.74909 18.3352 6.74909C24.9129 6.74909 29.4218 10.6416 29.4218 17.0616C29.4218 24.678 21.3942 29.5478 13.3311 29.0423C12.9775 29.0423 12.8891 28.7727 13.0659 28.5199Z" fill="#00FFFF"/>
<path d="M48.4884 32.1259C52.0956 32.1259 55.243 28.6884 58.8855 23.667C60.3354 21.6281 57.7715 20.28 56.357 22.0662C53.7754 25.2678 51.017 29.0423 48.8598 29.0423C47.8342 29.0423 47.2153 28.0144 47.2153 26.6663C47.2153 24.1219 49.0719 20.2463 50.8401 17.0279C51.6005 15.6798 50.3627 14.534 49.3372 14.534C48.7713 14.534 48.011 14.9553 47.0739 16.5224C46.9501 16.7751 46.7202 16.8088 46.455 16.6909C45.6593 16.2696 44.5453 16.1011 43.6612 16.1011C38.7279 16.1011 34.0422 21.291 34.0422 26.4136C34.0422 28.8232 35.9872 30.6768 38.6042 30.6768C39.9303 30.6768 41.8046 30.1713 43.7496 27.8459C44.0149 27.5931 44.1563 27.6437 44.1917 27.9301C44.4216 29.632 45.6063 32.1259 48.4884 32.1259ZM39.0992 27.7616C38.3743 27.7616 37.8085 27.3404 37.6316 26.1945C37.2249 23.7007 40.2839 19.0162 43.3076 19.0162C43.838 19.0162 44.5984 19.1342 45.1642 19.4375C45.4294 19.5554 45.4825 19.7745 45.3941 19.9936C44.6337 21.8808 41.9284 27.7616 39.0992 27.7616Z" fill="#00FFFF"/>
<path d="M75.9118 22.0662C73.0296 25.7733 70.1474 29.2445 66.8055 29.2445C64.3654 29.2445 63.3929 27.7616 63.3929 25.0655C63.3929 21.9314 64.2416 17.6176 65.7092 14.7868C65.7446 14.7025 65.7446 14.6519 65.7977 14.6182C65.8861 14.4834 66.0098 14.4497 66.2397 14.4834C67.2476 14.6182 69.0335 14.871 70.7663 14.7362C72.4108 14.6182 75.9472 13.3545 75.8234 11.3998C75.7703 10.7763 75.3283 10.0518 74.2674 10.0855C73.118 10.136 72.0925 11.5683 70.4127 11.8211C69.7761 11.9053 68.9451 11.9053 68.2378 11.8211C67.8841 11.7874 67.7957 11.5683 68.0079 11.2818C69.3871 9.41144 70.6779 7.8949 70.6779 6.71537C70.6779 5.65379 70.1828 4.33945 68.892 4.33945C67.336 4.33945 66.8939 5.56953 66.3635 6.63111C65.8861 7.64214 65.5324 8.78798 64.2416 10.8943C64.1002 11.1133 63.9234 11.1976 63.7112 11.147C63.1807 11.147 62.5972 11.1133 61.9783 11.147C59.8388 11.1976 55.4536 12.2086 55.6305 14.4834C55.7189 15.5956 56.4262 15.882 57.045 15.8483C57.8054 15.7978 58.6895 15.208 59.6266 14.7025C60.5107 14.2307 61.4832 13.9779 61.8899 14.0285C61.9253 14.0285 61.9783 14.0622 62.0137 14.0622C62.1021 14.0622 62.0137 14.2307 61.8369 14.534C59.5382 17.9209 57.717 20.3306 56.3377 22.0662C54.7464 24.0882 57.045 26.026 58.8663 23.667L60.0333 22.0156C60.2455 21.6786 60.5991 21.7966 60.5107 22.2347C60.3339 23.33 60.2101 24.3073 60.2101 24.9307C60.2101 28.9412 62.5972 32.2944 66.3635 32.2944C71.3321 32.2944 74.7448 28.7727 78.4403 23.667C79.6781 21.9819 77.3794 20.0778 75.9118 22.0662Z" fill="#00FFFF"/>
<path d="M84.1535 31.6204C88.9454 31.6204 93.2421 27.6774 96.1774 23.667C96.9377 22.6559 96.2127 21.2068 94.975 21.2068C94.7982 21.2068 94.4445 20.954 93.6488 22.0662C91.1556 25.4868 88.2735 28.6547 84.1535 28.6547C81.3067 28.6547 79.1849 26.3631 79.3971 24.004C79.3971 23.7007 79.5916 23.5827 79.8922 23.6164C80.4226 23.7007 81.0415 23.7849 82.014 23.7849C82.6859 23.7849 83.5347 23.667 84.5956 23.3637C86.7705 22.7402 89.4405 20.5328 89.4405 17.9547C89.4405 15.882 87.5662 14.0622 84.684 14.0622C79.6269 14.0622 75.9491 18.932 75.9491 23.7512C75.9491 28.5199 79.8038 31.6204 84.1535 31.6204ZM82.1201 20.9203C81.625 20.9203 81.0945 20.8698 80.5641 20.7855C80.2458 20.7518 80.1574 20.5328 80.2989 20.28C81.0061 18.932 82.6859 17.0279 84.5956 17.0279C85.5681 17.0279 86.4169 17.4491 86.4169 18.2917C86.4169 20.0778 83.9767 20.9203 82.1201 20.9203Z" fill="#00FFFF"/>
<path d="M9.0111 30.5766C9.71838 30.5766 10.4787 30.4418 11.3628 30.1048C11.628 30.0206 11.8049 29.9869 12.0347 29.9869C14.3334 29.9869 13.4847 29.9869 16.3668 30.0711C26.6755 30.0711 34.6147 23.6848 34.6147 15.3943C34.6147 7.23869 28.7443 2.03189 20.6282 2.03189C13.4493 2.03189 7.77335 6.00861 7.77335 11.9231C7.77335 15.6976 10.1251 18.815 14.2804 20.5169C14.5633 20.6348 14.6517 20.8033 14.5102 21.0561C13.6615 23.1287 12.4768 25.2856 11.2214 26.8021C11.0976 26.9706 10.8677 27.0212 10.6555 26.9706L10.3373 26.9369C9.5062 26.7684 8.65746 26.6336 7.80872 26.6336C6.21733 26.6336 5.36859 27.2739 5.36859 28.3692C5.36859 29.6498 6.87157 30.5766 9.0111 30.5766ZM15.0937 26.7179C16.0132 25.1676 16.7735 23.6342 17.5339 21.9492C17.6223 21.7301 17.7991 21.6122 18.0643 21.6122C21.3885 21.7301 23.6872 21.3089 26.534 19.9103C28.0016 19.2025 27.4181 16.6244 25.3317 17.3827C23.5634 18.023 21.5123 18.7307 19.3551 18.6128C19.0368 18.6128 18.9484 18.3937 19.0368 18.1073C19.8856 15.8156 21.2117 11.4176 21.6538 10.1538C21.8836 9.59776 22.0605 9.09225 22.0605 8.63728C22.0605 7.91271 21.477 7.4072 20.6282 7.4072C19.8325 7.4072 19.2137 8.16547 18.6301 9.90107C18.1527 11.2997 16.8619 15.1416 15.9778 17.5849C15.8364 17.8882 15.6596 17.9725 15.359 17.8545C12.5652 16.5739 10.9208 14.4676 10.9208 11.9231C10.9208 8.16547 14.7401 4.94703 20.363 4.94703C26.9407 4.94703 31.4496 8.83949 31.4496 15.2595C31.4496 22.8759 23.422 27.7457 15.359 27.2402C15.0053 27.2402 14.9169 26.9706 15.0937 26.7179Z" fill="#FDB3FD"/>
<path d="M50.5163 30.3238C54.1234 30.3238 57.2708 26.8863 60.9133 21.8649C62.3633 19.826 59.7994 18.478 58.3848 20.2641C55.8032 23.4657 53.0448 27.2402 50.8876 27.2402C49.862 27.2402 49.2432 26.2123 49.2432 24.8643C49.2432 22.3199 51.0998 18.4442 52.868 15.2258C53.6283 13.8778 52.3906 12.7319 51.365 12.7319C50.7992 12.7319 50.0388 13.1532 49.1017 14.7203C48.9779 14.973 48.7481 15.0067 48.4828 14.8888C47.6871 14.4675 46.5732 14.299 45.6891 14.299C40.7558 14.299 36.07 19.489 36.07 24.6115C36.07 27.0211 38.015 28.8747 40.632 28.8747C41.9581 28.8747 43.8324 28.3692 45.7775 26.0438C46.0427 25.7911 46.1842 25.8416 46.2195 26.1281C46.4494 27.83 47.6341 30.3238 50.5163 30.3238ZM41.1271 25.9596C40.4021 25.9596 39.8363 25.5383 39.6595 24.3925C39.2528 21.8986 42.3118 17.2142 45.3354 17.2142C45.8659 17.2142 46.6262 17.3321 47.192 17.6354C47.4573 17.7534 47.5103 17.9724 47.4219 18.1915C46.6616 20.0787 43.9562 25.9596 41.1271 25.9596Z" fill="#FDB3FD"/>
<path d="M77.9396 20.2641C75.0574 23.9712 72.1753 27.4424 68.8333 27.4424C66.3932 27.4424 65.4207 25.9596 65.4207 23.2635C65.4207 20.1293 66.2694 15.8156 67.737 12.9847C67.7724 12.9004 67.7724 12.8499 67.8255 12.8162C67.9139 12.6814 68.0376 12.6477 68.2675 12.6814C69.2754 12.8162 71.0613 13.0689 72.7941 12.9341C74.4386 12.8162 77.975 11.5524 77.8512 9.59774C77.7981 8.97427 77.3561 8.2497 76.2952 8.2834C75.1458 8.33395 74.1203 9.76624 72.4405 10.019C71.8039 10.1033 70.9729 10.1033 70.2656 10.019C69.9119 9.9853 69.8235 9.76624 70.0357 9.47979C71.4149 7.60938 72.7057 6.09284 72.7057 4.9133C72.7057 3.85172 72.2106 2.53738 70.9198 2.53738C69.3638 2.53738 68.9217 3.76747 68.3913 4.82905C67.9139 5.84008 67.5602 6.98591 66.2694 9.09222C66.128 9.31128 65.9512 9.39553 65.739 9.34498C65.2085 9.34498 64.625 9.31128 64.0061 9.34498C61.8666 9.39553 57.4814 10.4066 57.6583 12.6814C57.7467 13.7935 58.454 14.08 59.0728 14.0463C59.8332 13.9957 60.7173 13.406 61.6544 12.9004C62.5385 12.4286 63.511 12.1759 63.9177 12.2264C63.9531 12.2264 64.0061 12.2601 64.0415 12.2601C64.1299 12.2601 64.0415 12.4286 63.8647 12.7319C61.566 16.1189 59.7448 18.5285 58.3655 20.2641C56.7742 22.2862 59.0728 24.224 60.8941 21.8649L62.0611 20.2135C62.2733 19.8765 62.6269 19.9945 62.5385 20.4326C62.3617 21.5279 62.2379 22.5052 62.2379 23.1287C62.2379 27.1391 64.625 30.4923 68.3913 30.4923C73.3599 30.4923 76.7726 26.9706 80.4681 21.8649C81.7059 20.1798 79.4072 18.2757 77.9396 20.2641Z" fill="#FDB3FD"/>
<path d="M86.1814 29.8183C90.9732 29.8183 95.27 25.8753 98.2052 21.8649C98.9655 20.8539 98.2406 19.4047 97.0028 19.4047C96.826 19.4047 96.4723 19.152 95.6767 20.2641C93.1835 23.6848 90.3013 26.8527 86.1814 26.8527C83.3346 26.8527 81.2127 24.561 81.4249 22.2019C81.4249 21.8986 81.6194 21.7807 81.92 21.8144C82.4505 21.8986 83.0693 21.9829 84.0418 21.9829C84.7138 21.9829 85.5625 21.8649 86.6234 21.5616C88.7983 20.9381 91.4683 18.7307 91.4683 16.1526C91.4683 14.08 89.594 12.2601 86.7118 12.2601C81.6548 12.2601 77.9769 17.1299 77.9769 21.9492C77.9769 26.7179 81.8316 29.8183 86.1814 29.8183ZM84.1479 19.1183C83.6528 19.1183 83.1224 19.0677 82.5919 18.9835C82.2736 18.9498 82.1852 18.7307 82.3267 18.478C83.034 17.1299 84.7138 15.2258 86.6234 15.2258C87.5959 15.2258 88.4447 15.6471 88.4447 16.4896C88.4447 18.2758 86.0046 19.1183 84.1479 19.1183Z" fill="#FDB3FD"/>
<path d="M3.64642 35.3784V52.2457H5.85668V35.3784H3.64642ZM3.64642 33.2721H5.85668V31.1489H3.64642V33.2721Z" fill="#FF0000"/>
<path d="M10.3225 37.4847V52.2457H12.5328V37.4847H10.3225ZM12.5328 37.4847H19.1812V35.3784H12.5328V37.4847ZM19.1812 52.2457H21.3915V37.4847H19.1812V52.2457Z" fill="#FF0000"/>
<path d="M34.739 31.1489V52.2457H36.9493V31.1489H34.739Z" fill="#FF0000"/>
<path d="M41.4151 43.8036V50.1394H43.6253V43.8036H41.4151ZM41.4151 39.591H43.6253V37.4847H41.4151V39.591ZM43.6253 52.2457H50.2738V50.1394H43.6253V52.2457ZM43.6253 43.8036H50.2738V50.1394H52.484V37.4847H50.2738V41.6973H43.6253V43.8036ZM43.6253 37.4847H50.2738V35.3784H43.6253V37.4847Z" fill="#FF0000"/>
<path d="M59.1529 35.3784H56.9427V37.4847H59.1529V50.1394H61.3632V37.4847H65.8014V35.3784H61.3632V31.1489H59.1529V35.3784ZM61.3632 52.2457H65.8014V50.1394H61.3632V52.2457Z" fill="#FF0000"/>
<path d="M70.2573 43.8036V50.1394H72.4676V43.8036H70.2573ZM70.2573 39.591H72.4676V37.4847H70.2573V39.591ZM72.4676 52.2457H79.116V50.1394H72.4676V52.2457ZM72.4676 43.8036H79.116V50.1394H81.3263V37.4847H79.116V41.6973H72.4676V43.8036ZM72.4676 37.4847H79.116V35.3784H72.4676V37.4847Z" fill="#FF0000"/>
<path d="M85.7849 37.4847V52.2457H87.9952V37.4847H85.7849ZM87.9952 37.4847H92.4157V35.3784H87.9952V37.4847ZM92.4157 52.2457H94.6436V37.4847H92.4157V52.2457ZM94.6436 37.4847H99.0641V35.3784H94.6436V37.4847ZM99.0641 52.2457H101.274V37.4847H99.0641V52.2457Z" fill="#FF0000"/>
<path d="M0.273926 38.3754V55.2427H2.48418V38.3754H0.273926ZM0.273926 36.2691H2.48418V34.1459H0.273926V36.2691Z" fill="#00FFFF"/>
<path d="M6.95001 40.4817V55.2427H9.16027V40.4817H6.95001ZM9.16027 40.4817H15.8087V38.3754H9.16027V40.4817ZM15.8087 55.2427H18.019V40.4817H15.8087V55.2427Z" fill="#00FFFF"/>
<path d="M31.3665 34.1459V55.2427H33.5768V34.1459H31.3665Z" fill="#00FFFF"/>
<path d="M38.0426 46.8006V53.1364H40.2528V46.8006H38.0426ZM38.0426 42.588H40.2528V40.4817H38.0426V42.588ZM40.2528 55.2427H46.9013V53.1364H40.2528V55.2427ZM40.2528 46.8006H46.9013V53.1364H49.1116V40.4817H46.9013V44.6943H40.2528V46.8006ZM40.2528 40.4817H46.9013V38.3754H40.2528V40.4817Z" fill="#00FFFF"/>
<path d="M55.7804 38.3754H53.5702V40.4817H55.7804V53.1364H57.9907V40.4817H62.4289V38.3754H57.9907V34.1459H55.7804V38.3754ZM57.9907 55.2427H62.4289V53.1364H57.9907V55.2427Z" fill="#00FFFF"/>
<path d="M66.8849 46.8006V53.1364H69.0951V46.8006H66.8849ZM66.8849 42.588H69.0951V40.4817H66.8849V42.588ZM69.0951 55.2427H75.7436V53.1364H69.0951V55.2427ZM69.0951 46.8006H75.7436V53.1364H77.9538V40.4817H75.7436V44.6943H69.0951V46.8006ZM69.0951 40.4817H75.7436V38.3754H69.0951V40.4817Z" fill="#00FFFF"/>
<path d="M82.4124 40.4817V55.2427H84.6227V40.4817H82.4124ZM84.6227 40.4817H89.0432V38.3754H84.6227V40.4817ZM89.0432 55.2427H91.2711V40.4817H89.0432V55.2427ZM91.2711 40.4817H95.6917V38.3754H91.2711V40.4817ZM95.6917 55.2427H97.9019V40.4817H95.6917V55.2427Z" fill="#00FFFF"/>
<path d="M1.96014 36.8769V53.7442H4.1704V36.8769H1.96014ZM1.96014 34.7706H4.1704V32.6474H1.96014V34.7706Z" fill="black"/>
<path d="M8.63623 38.9832V53.7442H10.8465V38.9832H8.63623ZM10.8465 38.9832H17.4949V36.8769H10.8465V38.9832ZM17.4949 53.7442H19.7052V38.9832H17.4949V53.7442Z" fill="black"/>
<path d="M33.0528 32.6474V53.7442H35.263V32.6474H33.0528Z" fill="black"/>
<path d="M39.7288 45.3021V51.6379H41.9391V45.3021H39.7288ZM39.7288 41.0895H41.9391V38.9832H39.7288V41.0895ZM41.9391 53.7442H48.5875V51.6379H41.9391V53.7442ZM41.9391 45.3021H48.5875V51.6379H50.7978V38.9832H48.5875V43.1958H41.9391V45.3021ZM41.9391 38.9832H48.5875V36.8769H41.9391V38.9832Z" fill="black"/>
<path d="M57.4666 36.8769H55.2564V38.9832H57.4666V51.6379H59.6769V38.9832H64.1151V36.8769H59.6769V32.6474H57.4666V36.8769ZM59.6769 53.7442H64.1151V51.6379H59.6769V53.7442Z" fill="black"/>
<path d="M68.5711 45.3021V51.6379H70.7814V45.3021H68.5711ZM68.5711 41.0895H70.7814V38.9832H68.5711V41.0895ZM70.7814 53.7442H77.4298V51.6379H70.7814V53.7442ZM70.7814 45.3021H77.4298V51.6379H79.6401V38.9832H77.4298V43.1958H70.7814V45.3021ZM70.7814 38.9832H77.4298V36.8769H70.7814V38.9832Z" fill="black"/>
<path d="M84.0987 38.9832V53.7442H86.3089V38.9832H84.0987ZM86.3089 38.9832H90.7294V36.8769H86.3089V38.9832ZM90.7294 53.7442H92.9574V38.9832H90.7294V53.7442ZM92.9574 38.9832H97.3779V36.8769H92.9574V38.9832ZM97.3779 53.7442H99.5882V38.9832H97.3779V53.7442Z" fill="black"/>
</g>
<defs>
<clipPath id="clip0_80_2110">
<rect width="101" height="55" fill="white" transform="translate(0.5)"/>
</clipPath>
</defs>
</svg>
