<svg width="180" height="41" viewBox="0 0 180 41" fill="none" xmlns="http://www.w3.org/2000/svg">
<g clip-path="url(#clip0_2693_21)">
<path d="M61.9608 9.48916H79.238L61.9608 31.6728V34.4993H83.835V31.286H66.7618L84.0403 9.10244V6.27588H61.9608V9.48916Z" fill="black"/>
<path d="M96.1073 6.27588H92.3723V34.4993H96.1073V6.27588Z" fill="black"/>
<path d="M127.178 21.6462H125.578V21.4128C128.205 20.4846 129.888 17.9688 129.888 14.6768C129.888 9.37244 126.975 6.27588 121.188 6.27588H106.861V34.4993H110.597V23.6248H126.235V34.5021H129.968V24.4685C129.968 22.6137 129.271 21.6462 127.178 21.6462ZM120.488 20.562H110.597V9.41041H120.488C123.893 9.41041 125.947 10.8828 125.947 13.7093V16.2265C125.947 18.8576 123.936 20.562 120.488 20.562Z" fill="black"/>
<path d="M143.554 6.27588H139.819V34.4993H143.554V6.27588Z" fill="black"/>
<path d="M176.307 9.75928C173.845 7.20412 170.401 5.92725 166.006 5.92725C161.612 5.92725 158.167 7.20412 155.704 9.75928C153.242 12.2765 152.01 15.8399 152.01 20.406C152.01 24.9721 153.242 28.5369 155.666 31.0935C158.129 33.6107 161.573 34.8904 166.009 34.8904C170.446 34.8904 173.884 33.6135 176.31 31.0935C178.771 28.5369 180.002 24.9744 180.003 20.406C180 15.8399 178.768 12.2765 176.307 9.75928ZM176.063 22.3438C176.063 28.0729 172.368 31.7122 166.008 31.7122C159.892 31.7122 155.952 28.229 155.952 22.3438V18.3937C155.952 12.7026 159.646 9.10256 166.008 9.10256C169.085 9.10256 171.506 9.91537 173.312 11.5804C175.158 13.206 176.063 15.4912 176.063 18.3937V22.3438Z" fill="black"/>
<path d="M38.2753 0.102656H37.5891L3.32016 0L0.0154687 3.20203L13.9725 17.2617L21.1486 10.2825L13.8473 10.2192L8.76094 4.95281L32.6292 5.0625L0 37.5891L3.09094 40.815H3.73781H38.0939L41.3269 37.6692V37.6608L27.3783 23.6166L20.2022 30.5958L27.4416 30.6661L32.5659 35.9648L8.69766 35.8552L27.2602 17.3405L27.3698 17.2294H27.3783L41.3438 3.30469L38.2753 0.102656Z" fill="black"/>
</g>
<defs>
<clipPath id="clip0_2693_21">
<rect width="180" height="40.815" fill="white"/>
</clipPath>
</defs>
</svg>
