<svg width="80" height="60" viewBox="0 0 80 60" fill="none" xmlns="http://www.w3.org/2000/svg">
<g clip-path="url(#clip0_2098_1921)">
<path d="M32 0H80V60H32V0Z" fill="#FF0000"/>
<path d="M0 0H32V60H0V0Z" fill="#006600"/>
<path fill-rule="evenodd" clip-rule="evenodd" d="M42.4375 38.2749C38.4 38.1499 19.9375 26.6249 19.8125 24.7749L20.825 23.0874C22.6625 25.7499 41.5375 36.9624 43.4 36.5624L42.4375 38.2749Z" fill="#FFFF00" stroke="black" stroke-width="0.075" stroke-linecap="round" stroke-linejoin="round"/>
<path fill-rule="evenodd" clip-rule="evenodd" d="M20.6125 22.8501C20.25 23.8251 25.4375 27.0251 31.6625 30.8251C37.9 34.6126 43.275 36.9501 43.6625 36.6251L43.85 36.2751C43.775 36.4001 43.6 36.4376 43.3125 36.3501C41.625 35.8626 37.2375 33.8501 31.8 30.5501C26.35 27.2501 21.625 24.2126 20.8875 22.9251C20.83 22.8044 20.8042 22.671 20.8125 22.5376H20.7875L20.6375 22.8126L20.6125 22.8501ZM42.525 38.3251C42.4625 38.4501 42.325 38.4501 42.0875 38.4251C40.5875 38.2626 36.0125 36.0376 30.6 32.8001C24.3 29.0251 19.1 25.6001 19.675 24.7001L19.825 24.4251L19.85 24.4376C19.35 25.9626 30.1125 32.1126 30.75 32.5126C36.975 36.3626 42.225 38.6251 42.6875 38.0376L42.525 38.3251Z" fill="#FFFF00" stroke="black" stroke-width="0.075" stroke-linecap="round" stroke-linejoin="round"/>
<path fill-rule="evenodd" clip-rule="evenodd" d="M32.025 25.9C36.05 25.8625 41.025 25.35 43.9 24.2L43.275 23.2C41.5875 24.1375 36.5875 24.7625 31.9875 24.85C26.5625 24.8 22.725 24.2875 20.8 23L20.225 24.075C23.75 25.575 27.375 25.8875 32.025 25.9Z" fill="#FFFF00" stroke="black" stroke-width="0.075" stroke-linecap="round" stroke-linejoin="round"/>
<path fill-rule="evenodd" clip-rule="evenodd" d="M44.0625 24.2252C43.9625 24.3877 42.0875 25.0252 39.3375 25.5002C36.9133 25.8676 34.4644 26.0473 32.0125 26.0377C29.6634 26.0465 27.3163 25.8962 24.9875 25.5877C22.1 25.1377 20.6125 24.5127 20.05 24.2877L20.1875 24.0127C21.775 24.6377 23.275 25.0127 25.025 25.2877C27.3368 25.5998 29.6672 25.7544 32 25.7502C34.4392 25.7528 36.8751 25.5731 39.2875 25.2127C42.1 24.7502 43.6375 24.1627 43.8625 23.9002L44.0625 24.2377V24.2252ZM43.5125 23.2127C43.2125 23.4627 41.6875 24.0002 39.0125 24.4252C36.7026 24.7594 34.3715 24.9265 32.0375 24.9252C29.2875 24.9252 27.025 24.7252 25.3125 24.4752C22.5875 24.1252 21.1375 23.4752 20.6125 23.3002L20.775 23.0252C21.1875 23.2377 22.575 23.8002 25.3375 24.1877C27.5582 24.4852 29.797 24.6272 32.0375 24.6127C34.3549 24.6134 36.6693 24.4463 38.9625 24.1127C41.65 23.7377 43.1 23.0627 43.325 22.8877L43.5125 23.2127ZM18.7875 30.7502C21.2625 32.0877 26.775 32.7502 31.9875 32.8002C36.7375 32.8127 42.9125 32.0752 45.225 30.8502L45.1625 29.5127C44.4375 30.6377 37.8125 31.7252 31.9375 31.6877C26.0625 31.6377 20.6 30.7377 18.775 29.5627V30.7502" fill="#FFFF00"/>
<path d="M18.7875 30.7502C21.2625 32.0877 26.775 32.7502 31.9875 32.8002C36.7375 32.8127 42.9125 32.0752 45.225 30.8502L45.1625 29.5127C44.4375 30.6377 37.8125 31.7252 31.9375 31.6877C26.0625 31.6377 20.6 30.7377 18.775 29.5627V30.7502M44.0625 24.2252C43.9625 24.3877 42.0875 25.0252 39.3375 25.5002C36.9133 25.8676 34.4644 26.0473 32.0125 26.0377C29.6634 26.0465 27.3163 25.8962 24.9875 25.5877C22.1 25.1377 20.6125 24.5127 20.05 24.2877L20.1875 24.0127C21.775 24.6377 23.275 25.0127 25.025 25.2877C27.3368 25.5998 29.6672 25.7544 32 25.7502C34.4392 25.7528 36.8751 25.5731 39.2875 25.2127C42.1 24.7502 43.6375 24.1627 43.8625 23.9002L44.0625 24.2377V24.2252ZM43.5125 23.2127C43.2125 23.4627 41.6875 24.0002 39.0125 24.4252C36.7026 24.7594 34.3715 24.9265 32.0375 24.9252C29.2875 24.9252 27.025 24.7252 25.3125 24.4752C22.5875 24.1252 21.1375 23.4752 20.6125 23.3002L20.775 23.0252C21.1875 23.2377 22.575 23.8002 25.3375 24.1877C27.5582 24.4852 29.797 24.6272 32.0375 24.6127C34.3549 24.6134 36.6693 24.4463 38.9625 24.1127C41.65 23.7377 43.1 23.0627 43.325 22.8877L43.5125 23.2127Z" stroke="black" stroke-width="0.075" stroke-linecap="round" stroke-linejoin="round"/>
<path fill-rule="evenodd" clip-rule="evenodd" d="M45.35 30.5627V30.8752C45 31.3002 42.825 31.9252 40.1 32.3752C37.3928 32.7643 34.66 32.9482 31.925 32.9252C29.3316 32.9473 26.7405 32.7676 24.175 32.3877C22.2607 32.1665 20.3901 31.6609 18.625 30.8877V30.5252C19.8375 31.3252 23.1125 31.9252 24.2125 32.1002C26.1875 32.4002 28.725 32.6252 31.925 32.6252C35.2875 32.6252 37.975 32.3877 40.05 32.0752C42.0125 31.7877 44.8 31.0502 45.35 30.5627ZM45.35 29.4377V29.7502C45 30.1627 42.825 30.7877 40.1 31.2377C37.3931 31.631 34.6603 31.8191 31.925 31.8002C29.3318 31.8155 26.7412 31.6358 24.175 31.2627C22.2607 31.0415 20.3901 30.5359 18.625 29.7627V29.3877C19.8375 30.2002 23.125 30.7877 24.2125 30.9627C26.766 31.3367 29.3443 31.5164 31.925 31.5002C35.2875 31.5002 37.9875 31.2502 40.05 30.9377C42.0125 30.6627 44.8 29.9252 45.35 29.4377ZM31.975 38.0377C26.275 38.0127 21.3875 36.4877 20.35 36.2377L21.1 37.4127C24.6061 38.6545 28.3059 39.2598 32.025 39.2002C36.3625 39.0752 40.15 38.7377 42.8125 37.4377L43.5875 36.2127C41.775 37.0752 35.5875 38.0377 31.9625 38.0377" fill="#FFFF00"/>
<path d="M31.975 38.0377C26.275 38.0127 21.3875 36.4877 20.35 36.2377L21.1 37.4127C24.6061 38.6545 28.3059 39.2598 32.025 39.2002C36.3625 39.0752 40.15 38.7377 42.8125 37.4377L43.5875 36.2127C41.775 37.0752 35.5875 38.0377 31.9625 38.0377M45.35 30.5627V30.8752C45 31.3002 42.825 31.9252 40.1 32.3752C37.3928 32.7643 34.66 32.9482 31.925 32.9252C29.3316 32.9473 26.7405 32.7676 24.175 32.3877C22.2607 32.1665 20.3901 31.6609 18.625 30.8877V30.5252C19.8375 31.3252 23.1125 31.9252 24.2125 32.1002C26.1875 32.4002 28.725 32.6252 31.925 32.6252C35.2875 32.6252 37.975 32.3877 40.05 32.0752C42.0125 31.7877 44.8 31.0502 45.35 30.5627ZM45.35 29.4377V29.7502C45 30.1627 42.825 30.7877 40.1 31.2377C37.3931 31.631 34.6603 31.8191 31.925 31.8002C29.3318 31.8155 26.7412 31.6358 24.175 31.2627C22.2607 31.0415 20.3901 30.5359 18.625 29.7627V29.3877C19.8375 30.2002 23.125 30.7877 24.2125 30.9627C26.766 31.3367 29.3443 31.5164 31.925 31.5002C35.2875 31.5002 37.9875 31.2502 40.05 30.9377C42.0125 30.6627 44.8 29.9252 45.35 29.4377Z" stroke="black" stroke-width="0.075" stroke-linecap="round" stroke-linejoin="round"/>
<path fill-rule="evenodd" clip-rule="evenodd" d="M43.1125 37.1628C42.9987 37.3314 42.882 37.4981 42.7625 37.6628C41.5125 38.1128 39.5125 38.5878 38.6875 38.7128C36.4737 39.1253 34.2269 39.3345 31.975 39.3378C26.925 39.2628 22.7875 38.2753 20.85 37.4253L20.6875 37.1628L20.7125 37.1128L20.975 37.2253C24.5325 38.4025 28.2528 39.0142 32 39.0378C34.35 39.0378 36.6875 38.7753 38.575 38.4378C41.475 37.8503 42.65 37.4128 43.0125 37.2128L43.1 37.1628H43.1125ZM43.775 36.0628C43.6927 36.2092 43.6094 36.355 43.525 36.5003C42.85 36.7503 41.025 37.2753 38.3625 37.6503C36.6125 37.8878 35.525 38.1253 32.0375 38.1878C28.0508 38.1478 24.0886 37.5589 20.2625 36.4378L20.125 36.1253C24.0123 37.1997 28.0179 37.7875 32.05 37.8753C35.2375 37.8128 36.6 37.5753 38.3375 37.3378C41.4375 36.8628 43 36.3378 43.4625 36.2003C43.4628 36.192 43.4628 36.1836 43.4625 36.1753L43.7875 36.0503L43.775 36.0628Z" fill="#FFFF00" stroke="black" stroke-width="0.075" stroke-linecap="round" stroke-linejoin="round"/>
<path fill-rule="evenodd" clip-rule="evenodd" d="M43.85 29.7C43.8625 33.45 41.9375 36.825 40.4 38.3C38.1292 40.5147 35.0966 41.7761 31.925 41.825C28.1375 41.8875 24.575 39.425 23.6125 38.3375C21.4593 36.0541 20.2338 33.0505 20.175 29.9125C20.4 25.8125 22.0125 22.9625 24.3375 21C26.596 19.1407 29.4372 18.1361 32.3625 18.1625C34.0701 18.2453 35.7417 18.6839 37.27 19.4502C38.7983 20.2165 40.1496 21.2936 41.2375 22.6125C42.8 24.5125 43.4875 26.575 43.85 29.7ZM31.95 16.875C35.4468 16.8749 38.802 18.2571 41.284 20.7204C43.766 23.1837 45.1736 26.5282 45.2 30.025C45.2 31.7601 44.8582 33.4782 44.1942 35.0812C43.5303 36.6842 42.557 38.1408 41.3301 39.3676C40.1032 40.5945 38.6467 41.5678 37.0437 42.2318C35.4407 42.8957 33.7226 43.2375 31.9875 43.2375C30.2524 43.2375 28.5343 42.8957 26.9313 42.2318C25.3283 41.5678 23.8717 40.5945 22.6448 39.3676C21.4179 38.1408 20.4447 36.6842 19.7807 35.0812C19.1167 33.4782 18.775 31.7601 18.775 30.025C18.7625 22.775 24.6875 16.875 31.95 16.875Z" fill="#FFFF00" stroke="black" stroke-width="0.075" stroke-linecap="round" stroke-linejoin="round"/>
<path fill-rule="evenodd" clip-rule="evenodd" d="M31.9875 16.8125C39.2625 16.8125 45.1875 22.7375 45.1875 30.0125C45.1875 37.2875 39.2625 43.2125 32 43.2125C24.7375 43.2125 18.8 37.2875 18.8 30.0125C18.8 22.7375 24.725 16.8125 32 16.8125H31.9875ZM19.075 30C19.075 37.1 24.9125 42.9125 31.9875 42.9125C39.0625 42.9125 44.9 37.1 44.9 30C44.9 22.9 39.0625 17.0875 31.9875 17.0875C24.9125 17.0875 19.075 22.9 19.075 30Z" fill="#FFFF00" stroke="black" stroke-width="0.075" stroke-linecap="round" stroke-linejoin="round"/>
<path fill-rule="evenodd" clip-rule="evenodd" d="M32 17.9126C35.2027 17.9225 38.2715 19.1992 40.5362 21.4639C42.8009 23.7286 44.0776 26.7973 44.0875 30.0001C44.0776 33.204 42.8013 36.2741 40.537 38.5408C38.2726 40.8075 35.2039 42.0869 32 42.1001C25.375 42.1001 19.9125 36.6501 19.9125 30.0001C19.9256 26.7983 21.2034 23.7315 23.4674 21.4675C25.7314 19.2035 28.7982 17.9258 32 17.9126ZM20.2 30.0001C20.2 36.5001 25.525 41.8001 32 41.8001C38.475 41.8001 43.8 36.4876 43.8 30.0001C43.8 23.5001 38.475 18.2001 32 18.2001C28.8745 18.2133 25.8807 19.4607 23.6707 21.6708C21.4606 23.8809 20.2131 26.8746 20.2 30.0001Z" fill="#FFFF00" stroke="black" stroke-width="0.075" stroke-linecap="round" stroke-linejoin="round"/>
<path fill-rule="evenodd" clip-rule="evenodd" d="M32.5375 16.75H31.4V43.2875H32.525L32.5375 16.75Z" fill="#FFFF00" stroke="black" stroke-width="0.075" stroke-linecap="round" stroke-linejoin="round"/>
<path fill-rule="evenodd" clip-rule="evenodd" d="M32.4125 16.6001H32.7V43.4376H32.425V16.6001H32.4125ZM31.2875 16.6001H31.5875V43.4376H31.3V16.6001H31.2875Z" fill="#FFFF00" stroke="black" stroke-width="0.075" stroke-linecap="round" stroke-linejoin="round"/>
<path fill-rule="evenodd" clip-rule="evenodd" d="M45.2 30.525V29.55L44.4 28.8L39.8625 27.6L33.3375 26.9375L25.4625 27.3375L19.8625 28.6625L18.7375 29.5V30.4875L21.6 29.2L28.4 28.1375H34.9375L39.7375 28.6625L43.0625 29.4625L45.2 30.525Z" fill="#FFFF00" stroke="black" stroke-width="0.075" stroke-linecap="round" stroke-linejoin="round"/>
<path fill-rule="evenodd" clip-rule="evenodd" d="M32 27.9752C35.1125 27.9752 38.125 28.2627 40.5375 28.7252C43.0125 29.2252 44.75 29.8502 45.35 30.5377V30.8877C44.625 30.0127 42.2875 29.3877 40.475 29.0127C38.1 28.5627 35.1 28.2627 31.9875 28.2627C28.725 28.2627 25.675 28.5877 23.325 29.0377C21.45 29.4127 18.9375 30.1627 18.625 30.8877V30.5251C18.7875 30.0251 20.6625 29.2751 23.2875 28.7376C25.65 28.2751 28.7 27.9752 31.9875 27.9752H32ZM32 26.8376C34.8625 26.8319 37.7198 27.0829 40.5375 27.5876C43.0125 28.0876 44.75 28.7127 45.35 29.4127V29.7501C44.625 28.8876 42.2875 28.2502 40.475 27.8877C38.1 27.4252 35.1 27.1377 31.9875 27.1377C29.0864 27.1285 26.1907 27.3879 23.3375 27.9127C21.525 28.2502 18.9125 29.0251 18.625 29.7501V29.4001C18.8 28.9001 20.7 28.1126 23.2875 27.6126C25.6625 27.1501 28.7 26.8376 32 26.8376ZM31.925 21.0626C36.8375 21.0376 41.125 21.7501 43.0875 22.7501L43.8 24.0001C42.1 23.0751 37.475 22.1251 31.9375 22.2501C27.425 22.2876 22.6 22.7501 20.1875 24.0501L21.0375 22.6251C23.025 21.5876 27.7 21.0626 31.925 21.0626Z" fill="#FFFF00" stroke="black" stroke-width="0.075" stroke-linecap="round" stroke-linejoin="round"/>
<path fill-rule="evenodd" clip-rule="evenodd" d="M32 22.0874C34.5649 22.0441 37.1287 22.224 39.6625 22.6249C41.6625 22.9999 43.575 23.5499 43.85 23.8499L44.0625 24.2249C43.4 23.7999 41.7375 23.3124 39.6125 22.9124C37.4875 22.5124 34.775 22.3749 31.9875 22.3874C28.825 22.3749 26.3625 22.5374 24.2625 22.9124C22.8148 23.1153 21.4093 23.55 20.1 24.1999L20.3125 23.8124C21.0625 23.4374 22.225 22.9749 24.2 22.6124C26.3875 22.2124 28.875 22.0999 32 22.0874ZM32 20.9624C34.675 20.9374 37.325 21.0874 39.3875 21.4624C40.7237 21.6608 42.0169 22.0834 43.2125 22.7124L43.525 23.2124C43 22.6249 41.025 22.0624 39.2625 21.7624C37.2125 21.3999 34.675 21.2624 32 21.2374C29.5099 21.2152 27.0222 21.3992 24.5625 21.7874C23.2763 21.9666 22.0272 22.3507 20.8625 22.9249L21.1375 22.5124C21.8625 22.1374 23.0375 21.7874 24.5125 21.4999C26.9884 21.1066 29.4931 20.9226 32 20.9499V20.9624ZM38.55 35.4999C36.3834 35.1248 34.1859 34.9574 31.9875 34.9999C23.8 35.0999 21.1625 36.6874 20.8375 37.1624L20.2125 36.1624C22.3125 34.6624 26.7625 33.8124 32.0375 33.8874C34.775 33.9374 37.1375 34.1249 39.1125 34.5124L38.55 35.5124" fill="#FFFF00"/>
<path d="M38.55 35.4999C36.3834 35.1248 34.1859 34.9574 31.9875 34.9999C23.8 35.0999 21.1625 36.6874 20.8375 37.1624L20.2125 36.1624C22.3125 34.6624 26.7625 33.8124 32.0375 33.8874C34.775 33.9374 37.1375 34.1249 39.1125 34.5124L38.55 35.5124M32 22.0874C34.5649 22.0441 37.1287 22.224 39.6625 22.6249C41.6625 22.9999 43.575 23.5499 43.85 23.8499L44.0625 24.2249C43.4 23.7999 41.7375 23.3124 39.6125 22.9124C37.4875 22.5124 34.775 22.3749 31.9875 22.3874C28.825 22.3749 26.3625 22.5374 24.2625 22.9124C22.8148 23.1153 21.4093 23.55 20.1 24.1999L20.3125 23.8124C21.0625 23.4374 22.225 22.9749 24.2 22.6124C26.3875 22.2124 28.875 22.0999 32 22.0874ZM32 20.9624C34.675 20.9374 37.325 21.0874 39.3875 21.4624C40.7237 21.6608 42.0169 22.0834 43.2125 22.7124L43.525 23.2124C43 22.6249 41.025 22.0624 39.2625 21.7624C37.2125 21.3999 34.675 21.2624 32 21.2374C29.5099 21.2152 27.0222 21.3992 24.5625 21.7874C23.2763 21.9666 22.0272 22.3507 20.8625 22.9249L21.1375 22.5124C21.8625 22.1374 23.0375 21.7874 24.5125 21.4999C26.9884 21.1066 29.4931 20.9226 32 20.9499V20.9624Z" stroke="black" stroke-width="0.075" stroke-linecap="round" stroke-linejoin="round"/>
<path fill-rule="evenodd" clip-rule="evenodd" d="M31.95 34.8624C34.225 34.8999 36.45 34.9874 38.6125 35.3874L38.4625 35.6624C36.4625 35.2874 34.3125 35.1624 31.9625 35.1624C28.925 35.1374 25.875 35.4249 23.2125 36.1874C22.375 36.4249 20.9875 36.9624 20.8375 37.4124L20.6875 37.1624C20.7375 36.8874 21.5625 36.3374 23.1375 35.9124C26.1875 35.0374 29.0375 34.8749 31.95 34.8624ZM32.05 33.7124C34.4512 33.71 36.848 33.9191 39.2125 34.3374L39.05 34.6249C36.7411 34.2014 34.3974 33.9963 32.05 34.0124C29.025 34.0124 25.8125 34.2374 22.8875 35.0874C21.95 35.3624 20.3125 35.9624 20.2625 36.4249L20.1125 36.1499C20.1375 35.7249 21.55 35.1624 22.825 34.7999C25.7625 33.9374 28.9875 33.7249 32.05 33.7124Z" fill="#FFFF00" stroke="black" stroke-width="0.075" stroke-linecap="round" stroke-linejoin="round"/>
<path fill-rule="evenodd" clip-rule="evenodd" d="M43.675 36.3126L42.7 37.8501L39.8625 35.3376L32.5375 30.4001L24.2625 25.8626L19.975 24.4001L20.8875 22.7001L21.2 22.5376L23.8625 23.2001L32.6625 27.7376L37.7375 30.9376L42 34.0001L43.7375 36.0001L43.675 36.3126Z" fill="#FFFF00" stroke="black" stroke-width="0.075" stroke-linecap="round" stroke-linejoin="round"/>
<path fill-rule="evenodd" clip-rule="evenodd" d="M19.825 24.4377C20.575 23.9377 26.1 26.3877 31.9 29.8877C37.6625 33.3877 43.1875 37.3377 42.6875 38.0752L42.525 38.3377L42.45 38.4002C42.4625 38.3877 42.55 38.2752 42.45 38.0127C42.2 37.2002 38.275 34.0752 31.7875 30.1502C25.45 26.3877 20.175 24.1127 19.6625 24.7627L19.825 24.4377ZM43.875 36.3002C44.35 35.3502 39.225 31.4877 32.8625 27.7252C26.3625 24.0377 21.6625 21.8627 20.8 22.5127L20.625 22.8752C20.625 22.8877 20.625 22.8502 20.675 22.8127C20.825 22.6877 21.0875 22.6877 21.2 22.6877C22.675 22.7127 26.8875 24.6502 32.8 28.0377C35.4 29.5377 43.75 34.9127 43.7125 36.4127C43.7125 36.5377 43.725 36.5627 43.675 36.6377L43.8875 36.3127L43.875 36.3002Z" fill="#FFFF00" stroke="black" stroke-width="0.075" stroke-linecap="round" stroke-linejoin="round"/>
<path d="M24.0801 31.4708C24.0821 32.5058 24.2893 33.5302 24.6898 34.4846C25.0903 35.4389 25.6762 36.3044 26.4134 37.0308C27.1417 37.7703 28.0091 38.3584 28.9656 38.7611C29.9221 39.1639 30.9489 39.3734 31.9868 39.3775C34.0872 39.3774 36.1016 38.5428 37.5868 37.0575C38.3214 36.3271 38.9046 35.4587 39.3027 34.5022C39.7008 33.5458 39.9061 32.5202 39.9068 31.4842V20.9241L24.0801 20.8975V31.4708Z" fill="white" stroke="black" stroke-width="0.0933336"/>
<path d="M24.3734 31.4842C24.3762 32.477 24.5756 33.4595 24.9601 34.3749C25.3445 35.2902 25.9065 36.1204 26.6134 36.8175C28.033 38.2445 29.9606 39.0501 31.9734 39.0575C33.9827 39.0586 35.9104 38.2626 37.3335 36.8442C38.038 36.146 38.5975 35.3153 38.9796 34.4C39.3618 33.4846 39.5591 32.5027 39.5601 31.5108V21.2441H24.4001V31.4842M36.5335 24.3241V30.8442L36.5201 31.5242C36.5246 32.1198 36.4088 32.7103 36.1797 33.2601C35.9506 33.81 35.6129 34.3079 35.1868 34.7242C34.3389 35.575 33.188 36.0546 31.9868 36.0575C30.7334 36.0575 29.6268 35.5242 28.8001 34.6975C27.9492 33.8496 27.4697 32.6987 27.4668 31.4975V24.2975L36.5335 24.3241Z" fill="#FF0000"/>
<path d="M24.3734 31.4842C24.3762 32.477 24.5756 33.4595 24.9601 34.3749C25.3445 35.2902 25.9065 36.1204 26.6134 36.8175C28.033 38.2445 29.9606 39.0501 31.9734 39.0575C33.9827 39.0586 35.9104 38.2626 37.3335 36.8442C38.038 36.146 38.5975 35.3153 38.9796 34.4C39.3618 33.4846 39.5591 32.5027 39.5601 31.5108V21.2441H24.4001V31.4842M36.5335 24.3241V30.8442L36.5201 31.5242C36.5246 32.1198 36.4088 32.7103 36.1797 33.2601C35.9506 33.81 35.6129 34.3079 35.1868 34.7242C34.3389 35.575 33.188 36.0546 31.9868 36.0575C30.7334 36.0575 29.6268 35.5242 28.8001 34.6975C27.9492 33.8496 27.4697 32.6987 27.4668 31.4975V24.2975L36.5335 24.3241Z" stroke="black" stroke-width="0.0666669"/>
<path d="M25.3601 23.9242C25.3734 23.1909 25.8934 23.0176 25.8934 23.0176C25.9068 23.0176 26.4668 23.2042 26.4668 23.9376H25.3601" fill="#FFFF00"/>
<path d="M24.9068 23.0309L24.8134 23.8709H25.3734C25.3734 23.1776 25.9068 23.0709 25.9068 23.0709C25.9201 23.0709 26.4401 23.2176 26.4534 23.8709H27.0134L26.9068 23.0176H24.9068V23.0309ZM24.7734 23.8842H27.0401C27.0801 23.8842 27.1201 23.9242 27.1201 23.9776C27.1201 24.0442 27.0801 24.0842 27.0401 24.0842H24.7734C24.7334 24.0842 24.6934 24.0442 24.6934 23.9776C24.6934 23.9242 24.7334 23.8842 24.7868 23.8842H24.7734Z" fill="#FFFF00" stroke="black" stroke-width="0.0666669"/>
<path d="M25.6001 23.871C25.6001 23.431 25.9068 23.311 25.9068 23.311C25.9068 23.311 26.2134 23.4443 26.2134 23.871H25.6001ZM24.8268 22.671H27.0001C27.0401 22.671 27.0801 22.7243 27.0801 22.7777C27.0801 22.8177 27.0401 22.8577 27.0001 22.8577H24.8268C24.7868 22.8577 24.7468 22.8177 24.7468 22.7643C24.7468 22.7243 24.7868 22.6843 24.8268 22.6843V22.671ZM24.8801 22.871H26.9334C26.9734 22.871 27.0134 22.911 27.0134 22.9643C27.0134 23.0177 26.9734 23.0577 26.9334 23.0577H24.8668C24.8134 23.0577 24.7868 23.0177 24.7868 22.9643C24.7868 22.911 24.8134 22.871 24.8668 22.871H24.8801ZM25.5468 21.4577H25.7068V21.5643H25.8268V21.4577H26.0001V21.5777H26.1201V21.4443H26.2801V21.711C26.2801 21.7643 26.2534 21.791 26.2134 21.791H25.6268C25.5868 21.791 25.5468 21.7643 25.5468 21.7243V21.4577ZM26.1601 21.8177L26.2001 22.671H25.6268L25.6668 21.8043H26.1601" fill="#FFFF00"/>
<path d="M26.1601 21.8177L26.2001 22.671H25.6268L25.6668 21.8043H26.1601M25.6001 23.871C25.6001 23.431 25.9068 23.311 25.9068 23.311C25.9068 23.311 26.2134 23.4443 26.2134 23.871H25.6001ZM24.8268 22.671H27.0001C27.0401 22.671 27.0801 22.7243 27.0801 22.7777C27.0801 22.8177 27.0401 22.8577 27.0001 22.8577H24.8268C24.7868 22.8577 24.7468 22.8177 24.7468 22.7643C24.7468 22.7243 24.7868 22.6843 24.8268 22.6843V22.671ZM24.8801 22.871H26.9334C26.9734 22.871 27.0134 22.911 27.0134 22.9643C27.0134 23.0177 26.9734 23.0577 26.9334 23.0577H24.8668C24.8134 23.0577 24.7868 23.0177 24.7868 22.9643C24.7868 22.911 24.8134 22.871 24.8668 22.871H24.8801ZM25.5468 21.4577H25.7068V21.5643H25.8268V21.4577H26.0001V21.5777H26.1201V21.4443H26.2801V21.711C26.2801 21.7643 26.2534 21.791 26.2134 21.791H25.6268C25.5868 21.791 25.5468 21.7643 25.5468 21.7243V21.4577Z" stroke="black" stroke-width="0.0666669"/>
<path d="M25.4667 22.2178V22.6711H24.9334V22.2178H25.4667Z" fill="#FFFF00" stroke="black" stroke-width="0.0666669"/>
<path d="M26.8801 22.2178V22.6711H26.3467V22.2178H26.8801Z" fill="#FFFF00" stroke="black" stroke-width="0.0666669"/>
<path d="M24.8401 21.8711H25.0001V22.0044H25.1201V21.8711H25.2801V22.0044H25.4001V21.8711H25.5601V22.1378C25.5601 22.1911 25.5334 22.2178 25.4934 22.2178H24.9201C24.8989 22.2178 24.8785 22.2093 24.8635 22.1943C24.8485 22.1793 24.8401 22.159 24.8401 22.1378V21.8711Z" fill="#FFFF00" stroke="black" stroke-width="0.0666669"/>
<path d="M26.2534 21.8711H26.4134V22.0044H26.5334V21.8711H26.6934V22.0044H26.8134V21.8711H26.9734V22.1378C26.9734 22.1911 26.9468 22.2178 26.9068 22.2178H26.3334C26.3122 22.2178 26.2919 22.2093 26.2768 22.1943C26.2618 22.1793 26.2534 22.159 26.2534 22.1378V21.8711Z" fill="#FFFF00" stroke="black" stroke-width="0.0666669"/>
<path d="M25.8534 22.0844C25.8534 22.0044 25.9734 22.0044 25.9734 22.0844V22.2977H25.8534V22.0844Z" fill="black"/>
<path d="M25.1467 22.3779C25.1467 22.2979 25.2534 22.2979 25.2534 22.3779V22.5379H25.1467V22.3779Z" fill="black"/>
<path d="M26.5601 22.3779C26.5601 22.2979 26.6668 22.2979 26.6668 22.3779V22.5379H26.5601V22.3779Z" fill="black"/>
<path d="M25.3601 30.0976C25.3734 29.3643 25.8934 29.1909 25.8934 29.1909C25.9068 29.1909 26.4668 29.3776 26.4668 30.1109H25.3601" fill="#FFFF00"/>
<path d="M24.9068 29.2043L24.8134 30.0443H25.3734C25.3734 29.3509 25.9068 29.2443 25.9068 29.2443C25.9201 29.2443 26.4401 29.3909 26.4534 30.0443H27.0134L26.9068 29.1909H24.9068V29.2043ZM24.7734 30.0576H27.0401C27.0801 30.0576 27.1201 30.0976 27.1201 30.1509C27.1201 30.2176 27.0801 30.2576 27.0401 30.2576H24.7734C24.7334 30.2576 24.6934 30.2176 24.6934 30.1509C24.6934 30.0976 24.7334 30.0576 24.7868 30.0576H24.7734Z" fill="#FFFF00" stroke="black" stroke-width="0.0666669"/>
<path d="M25.6001 30.0443C25.6001 29.6043 25.9068 29.4843 25.9068 29.4843C25.9068 29.4843 26.2134 29.6177 26.2134 30.0443H25.6001ZM24.8268 28.8443H27.0001C27.0401 28.8443 27.0801 28.8977 27.0801 28.951C27.0801 28.991 27.0401 29.031 27.0001 29.031H24.8268C24.7868 29.031 24.7468 28.991 24.7468 28.9377C24.7468 28.8977 24.7868 28.8577 24.8268 28.8577V28.8443ZM24.8801 29.0443H26.9334C26.9734 29.0443 27.0134 29.0843 27.0134 29.1377C27.0134 29.191 26.9734 29.231 26.9334 29.231H24.8668C24.8134 29.231 24.7868 29.191 24.7868 29.1377C24.7868 29.0843 24.8134 29.0443 24.8668 29.0443H24.8801ZM25.5468 27.631H25.7068V27.7377H25.8268V27.631H26.0001V27.751H26.1201V27.6177H26.2801V27.8843C26.2801 27.9377 26.2534 27.9643 26.2134 27.9643H25.6268C25.5868 27.9643 25.5468 27.9377 25.5468 27.8977V27.631ZM26.1601 27.991L26.2001 28.8443H25.6268L25.6668 27.9777H26.1601" fill="#FFFF00"/>
<path d="M26.1601 27.991L26.2001 28.8443H25.6268L25.6668 27.9777H26.1601M25.6001 30.0443C25.6001 29.6043 25.9068 29.4843 25.9068 29.4843C25.9068 29.4843 26.2134 29.6177 26.2134 30.0443H25.6001ZM24.8268 28.8443H27.0001C27.0401 28.8443 27.0801 28.8977 27.0801 28.951C27.0801 28.991 27.0401 29.031 27.0001 29.031H24.8268C24.7868 29.031 24.7468 28.991 24.7468 28.9377C24.7468 28.8977 24.7868 28.8577 24.8268 28.8577V28.8443ZM24.8801 29.0443H26.9334C26.9734 29.0443 27.0134 29.0843 27.0134 29.1377C27.0134 29.191 26.9734 29.231 26.9334 29.231H24.8668C24.8134 29.231 24.7868 29.191 24.7868 29.1377C24.7868 29.0843 24.8134 29.0443 24.8668 29.0443H24.8801ZM25.5468 27.631H25.7068V27.7377H25.8268V27.631H26.0001V27.751H26.1201V27.6177H26.2801V27.8843C26.2801 27.9377 26.2534 27.9643 26.2134 27.9643H25.6268C25.5868 27.9643 25.5468 27.9377 25.5468 27.8977V27.631Z" stroke="black" stroke-width="0.0666669"/>
<path d="M25.4667 28.3911V28.8444H24.9334V28.3911H25.4667Z" fill="#FFFF00" stroke="black" stroke-width="0.0666669"/>
<path d="M26.8801 28.3911V28.8444H26.3467V28.3911H26.8801Z" fill="#FFFF00" stroke="black" stroke-width="0.0666669"/>
<path d="M24.8401 28.0444H25.0001V28.1778H25.1201V28.0444H25.2801V28.1778H25.4001V28.0444H25.5601V28.3111C25.5601 28.3644 25.5334 28.3911 25.4934 28.3911H24.9201C24.8989 28.3911 24.8785 28.3827 24.8635 28.3677C24.8485 28.3527 24.8401 28.3323 24.8401 28.3111V28.0444Z" fill="#FFFF00" stroke="black" stroke-width="0.0666669"/>
<path d="M26.2534 28.0444H26.4134V28.1778H26.5334V28.0444H26.6934V28.1778H26.8134V28.0444H26.9734V28.3111C26.9734 28.3644 26.9468 28.3911 26.9068 28.3911H26.3334C26.3122 28.3911 26.2919 28.3827 26.2768 28.3677C26.2618 28.3527 26.2534 28.3323 26.2534 28.3111V28.0444Z" fill="#FFFF00" stroke="black" stroke-width="0.0666669"/>
<path d="M25.8534 28.2578C25.8534 28.1778 25.9734 28.1778 25.9734 28.2578V28.4711H25.8534V28.2578Z" fill="black"/>
<path d="M25.1467 28.5512C25.1467 28.4712 25.2534 28.4712 25.2534 28.5512V28.7112H25.1467V28.5512Z" fill="black"/>
<path d="M26.5601 28.5512C26.5601 28.4712 26.6668 28.4712 26.6668 28.5512V28.7112H26.5601V28.5512Z" fill="black"/>
<path d="M27.7663 36.5319C27.2554 36.0057 27.4988 35.5146 27.4988 35.5146C27.5082 35.5052 28.0352 35.2393 28.5556 35.7561L27.7758 36.5413" fill="#FFFF00"/>
<path d="M26.813 36.2237L27.3433 36.8819L27.7379 36.4845C27.2459 35.996 27.5461 35.5424 27.5461 35.5424C27.5555 35.5329 28.0259 35.2673 28.4989 35.7182L28.8935 35.3208L28.2129 34.7952L26.8036 36.2143L26.813 36.2237ZM27.3246 36.9196L28.9218 35.3113C28.95 35.2829 29.0065 35.2827 29.0444 35.3203C29.0917 35.3673 29.0919 35.4238 29.0637 35.4522L27.4665 37.0606C27.4383 37.089 27.3818 37.0891 27.3344 37.0422C27.2966 37.0046 27.2964 36.948 27.334 36.9102L27.3246 36.9196Z" fill="#FFFF00" stroke="black" stroke-width="0.0666669"/>
<path d="M27.8976 36.3237C27.5854 36.0136 27.7164 35.7115 27.7164 35.7115C27.7164 35.7115 28.0271 35.5878 28.3298 35.8884L27.8976 36.3237ZM26.5012 36.0268L28.0327 34.4847C28.0608 34.4563 28.1269 34.4655 28.1647 34.5031C28.1931 34.5313 28.1933 34.5878 28.1651 34.6162L26.6337 36.1584C26.6055 36.1867 26.5489 36.1869 26.5111 36.1494C26.4827 36.1212 26.4825 36.0646 26.5107 36.0362L26.5012 36.0268ZM26.6807 36.1299L28.1276 34.6729C28.1558 34.6445 28.2123 34.6443 28.2502 34.6819C28.288 34.7195 28.2882 34.7761 28.26 34.8045L26.8038 36.2709C26.7662 36.3087 26.719 36.2995 26.6812 36.2619C26.6434 36.2243 26.6338 36.1772 26.6713 36.1394L26.6807 36.1299ZM26.1476 34.661L26.2604 34.5474L26.3361 34.6226L26.4206 34.5375L26.3449 34.4623L26.4671 34.3393L26.5522 34.4239L26.6368 34.3387L26.5422 34.2448L26.6549 34.1312L26.8441 34.3191C26.882 34.3567 26.8821 34.3944 26.8539 34.4228L26.4405 34.8391C26.4123 34.8675 26.3652 34.8771 26.3369 34.8489L26.1476 34.661ZM26.8353 34.4794L27.4689 35.0523L27.065 35.4592L26.4782 34.8201L26.8258 34.47" fill="#FFFF00"/>
<path d="M26.8353 34.4794L27.4689 35.0523L27.065 35.4592L26.4782 34.8201L26.8258 34.47M27.8976 36.3237C27.5854 36.0136 27.7164 35.7115 27.7164 35.7115C27.7164 35.7115 28.0271 35.5878 28.3298 35.8884L27.8976 36.3237ZM26.5012 36.0268L28.0327 34.4847C28.0608 34.4563 28.1269 34.4655 28.1647 34.5031C28.1931 34.5313 28.1933 34.5878 28.1651 34.6162L26.6337 36.1584C26.6055 36.1867 26.5489 36.1869 26.5111 36.1494C26.4827 36.1212 26.4825 36.0646 26.5107 36.0362L26.5012 36.0268ZM26.6807 36.1299L28.1276 34.6729C28.1558 34.6445 28.2123 34.6443 28.2502 34.6819C28.288 34.7195 28.2882 34.7761 28.26 34.8045L26.8038 36.2709C26.7662 36.3087 26.719 36.2995 26.6812 36.2619C26.6434 36.2243 26.6338 36.1772 26.6713 36.1394L26.6807 36.1299ZM26.1476 34.661L26.2604 34.5474L26.3361 34.6226L26.4206 34.5375L26.3449 34.4623L26.4671 34.3393L26.5522 34.4239L26.6368 34.3387L26.5422 34.2448L26.6549 34.1312L26.8441 34.3191C26.882 34.3567 26.8821 34.3944 26.8539 34.4228L26.4405 34.8391C26.4123 34.8675 26.3652 34.8771 26.3369 34.8489L26.1476 34.661Z" stroke="black" stroke-width="0.0666669"/>
<path d="M26.6305 35.2534L26.9522 35.5728L26.5764 35.9513L26.2547 35.6318L26.6305 35.2534Z" fill="#FFFF00" stroke="black" stroke-width="0.0666669"/>
<path d="M27.6264 34.2505L27.9481 34.5699L27.5723 34.9483L27.2506 34.6289L27.6264 34.2505Z" fill="#FFFF00" stroke="black" stroke-width="0.0666669"/>
<path d="M25.943 35.4541L26.0557 35.3406L26.1503 35.4345L26.2349 35.3494L26.1403 35.2554L26.253 35.1419L26.3476 35.2358L26.4322 35.1507L26.3376 35.0567L26.4503 34.9432L26.6396 35.1311C26.6774 35.1687 26.6775 35.2064 26.6493 35.2348L26.2453 35.6416C26.2304 35.6567 26.2101 35.6652 26.1889 35.6652C26.1676 35.6653 26.1473 35.657 26.1322 35.642L25.943 35.4541Z" fill="#FFFF00" stroke="black" stroke-width="0.0666669"/>
<path d="M26.9388 34.4512L27.0516 34.3376L27.1462 34.4316L27.2307 34.3464L27.1361 34.2525L27.2489 34.139L27.3435 34.2329L27.428 34.1478L27.3334 34.0538L27.4462 33.9403L27.6354 34.1282C27.6732 34.1658 27.6734 34.2035 27.6452 34.2319L27.2412 34.6387C27.2262 34.6537 27.2059 34.6622 27.1847 34.6623C27.1635 34.6624 27.1431 34.654 27.1281 34.6391L26.9388 34.4512Z" fill="#FFFF00" stroke="black" stroke-width="0.0666669"/>
<path d="M26.8084 34.8851C26.7516 34.8287 26.8362 34.7435 26.8929 34.7999L27.0443 34.9502L26.9598 35.0354L26.8084 34.8851Z" fill="black"/>
<path d="M26.5186 35.5935C26.4618 35.5372 26.537 35.4615 26.5937 35.5179L26.7073 35.6306L26.6321 35.7063L26.5186 35.5935Z" fill="black"/>
<path d="M27.5144 34.5906C27.4577 34.5342 27.5328 34.4586 27.5896 34.5149L27.7031 34.6277L27.628 34.7034L27.5144 34.5906Z" fill="black"/>
<path d="M31.4534 23.9242C31.4668 23.1909 31.9868 23.0176 31.9868 23.0176C32.0001 23.0176 32.5601 23.2042 32.5601 23.9376H31.4534" fill="#FFFF00"/>
<path d="M31.0001 23.0309L30.9067 23.8709H31.4667C31.4667 23.1776 32.0001 23.0709 32.0001 23.0709C32.0134 23.0709 32.5334 23.2176 32.5467 23.8709H33.1068L33.0001 23.0176H31.0001V23.0309ZM30.8667 23.8842H33.1334C33.1734 23.8842 33.2134 23.9242 33.2134 23.9776C33.2134 24.0442 33.1734 24.0842 33.1334 24.0842H30.8667C30.8267 24.0842 30.7867 24.0442 30.7867 23.9776C30.7867 23.9242 30.8267 23.8842 30.8801 23.8842H30.8667Z" fill="#FFFF00" stroke="black" stroke-width="0.0666669"/>
<path d="M31.6934 23.871C31.6934 23.431 32.0001 23.311 32.0001 23.311C32.0001 23.311 32.3068 23.4443 32.3068 23.871H31.6934ZM30.9201 22.671H33.0934C33.1334 22.671 33.1734 22.7243 33.1734 22.7777C33.1734 22.8177 33.1334 22.8577 33.0934 22.8577H30.9201C30.8801 22.8577 30.8401 22.8177 30.8401 22.7643C30.8401 22.7243 30.8801 22.6843 30.9201 22.6843V22.671ZM30.9734 22.871H33.0268C33.0668 22.871 33.1068 22.911 33.1068 22.9643C33.1068 23.0177 33.0668 23.0577 33.0268 23.0577H30.9601C30.9068 23.0577 30.8801 23.0177 30.8801 22.9643C30.8801 22.911 30.9068 22.871 30.9601 22.871H30.9734ZM31.6401 21.4577H31.8001V21.5643H31.9201V21.4577H32.0934V21.5777H32.2134V21.4443H32.3734V21.711C32.3734 21.7643 32.3468 21.791 32.3068 21.791H31.7201C31.6801 21.791 31.6401 21.7643 31.6401 21.7243V21.4577ZM32.2534 21.8177L32.2934 22.671H31.7201L31.7601 21.8043H32.2534" fill="#FFFF00"/>
<path d="M32.2534 21.8177L32.2934 22.671H31.7201L31.7601 21.8043H32.2534M31.6934 23.871C31.6934 23.431 32.0001 23.311 32.0001 23.311C32.0001 23.311 32.3068 23.4443 32.3068 23.871H31.6934ZM30.9201 22.671H33.0934C33.1334 22.671 33.1734 22.7243 33.1734 22.7777C33.1734 22.8177 33.1334 22.8577 33.0934 22.8577H30.9201C30.8801 22.8577 30.8401 22.8177 30.8401 22.7643C30.8401 22.7243 30.8801 22.6843 30.9201 22.6843V22.671ZM30.9734 22.871H33.0268C33.0668 22.871 33.1068 22.911 33.1068 22.9643C33.1068 23.0177 33.0668 23.0577 33.0268 23.0577H30.9601C30.9068 23.0577 30.8801 23.0177 30.8801 22.9643C30.8801 22.911 30.9068 22.871 30.9601 22.871H30.9734ZM31.6401 21.4577H31.8001V21.5643H31.9201V21.4577H32.0934V21.5777H32.2134V21.4443H32.3734V21.711C32.3734 21.7643 32.3468 21.791 32.3068 21.791H31.7201C31.6801 21.791 31.6401 21.7643 31.6401 21.7243V21.4577Z" stroke="black" stroke-width="0.0666669"/>
<path d="M31.5601 22.2178V22.6711H31.0267V22.2178H31.5601Z" fill="#FFFF00" stroke="black" stroke-width="0.0666669"/>
<path d="M32.9734 22.2178V22.6711H32.4401V22.2178H32.9734Z" fill="#FFFF00" stroke="black" stroke-width="0.0666669"/>
<path d="M30.9334 21.8711H31.0934V22.0044H31.2134V21.8711H31.3734V22.0044H31.4934V21.8711H31.6534V22.1378C31.6534 22.1911 31.6267 22.2178 31.5867 22.2178H31.0134C30.9922 22.2178 30.9718 22.2093 30.9568 22.1943C30.9418 22.1793 30.9334 22.159 30.9334 22.1378V21.8711Z" fill="#FFFF00" stroke="black" stroke-width="0.0666669"/>
<path d="M32.3467 21.8711H32.5067V22.0044H32.6267V21.8711H32.7867V22.0044H32.9067V21.8711H33.0667V22.1378C33.0667 22.1911 33.0401 22.2178 33.0001 22.2178H32.4267C32.4055 22.2178 32.3852 22.2093 32.3702 22.1943C32.3552 22.1793 32.3467 22.159 32.3467 22.1378V21.8711Z" fill="#FFFF00" stroke="black" stroke-width="0.0666669"/>
<path d="M31.9468 22.0844C31.9468 22.0044 32.0668 22.0044 32.0668 22.0844V22.2977H31.9468V22.0844Z" fill="black"/>
<path d="M31.2401 22.3779C31.2401 22.2979 31.3467 22.2979 31.3467 22.3779V22.5379H31.2401V22.3779Z" fill="black"/>
<path d="M32.6534 22.3779C32.6534 22.2979 32.7601 22.2979 32.7601 22.3779V22.5379H32.6534V22.3779Z" fill="black"/>
<path d="M38.6135 23.9242C38.6002 23.1909 38.0802 23.0176 38.0802 23.0176C38.0669 23.0176 37.5069 23.2042 37.5069 23.9376H38.6135" fill="#FFFF00"/>
<path d="M39.0668 23.0309L39.1601 23.8709H38.6001C38.6001 23.1776 38.0668 23.0709 38.0668 23.0709C38.0535 23.0709 37.5335 23.2176 37.5201 23.8709H36.9601L37.0668 23.0176H39.0668V23.0309ZM39.2002 23.8842H36.9335C36.8935 23.8842 36.8535 23.9242 36.8535 23.9776C36.8535 24.0442 36.8935 24.0842 36.9335 24.0842H39.2002C39.2402 24.0842 39.2802 24.0442 39.2802 23.9776C39.2802 23.9242 39.2402 23.8842 39.1868 23.8842H39.2002Z" fill="#FFFF00" stroke="black" stroke-width="0.0666669"/>
<path d="M38.3735 23.871C38.3735 23.431 38.0668 23.311 38.0668 23.311C38.0668 23.311 37.7601 23.4443 37.7601 23.871H38.3735ZM39.1468 22.671H36.9735C36.9335 22.671 36.8935 22.7243 36.8935 22.7777C36.8935 22.8177 36.9335 22.8577 36.9735 22.8577H39.1468C39.1868 22.8577 39.2268 22.8177 39.2268 22.7643C39.2268 22.7243 39.1868 22.6843 39.1468 22.6843V22.671ZM39.0935 22.871H37.0401C37.0001 22.871 36.9601 22.911 36.9601 22.9643C36.9601 23.0177 37.0001 23.0577 37.0401 23.0577H39.1068C39.1601 23.0577 39.1868 23.0177 39.1868 22.9643C39.1868 22.911 39.1601 22.871 39.1068 22.871H39.0935ZM38.4268 21.4577H38.2668V21.5643H38.1468V21.4577H37.9735V21.5777H37.8535V21.4443H37.6935V21.711C37.6935 21.7643 37.7201 21.791 37.7601 21.791H38.3468C38.3868 21.791 38.4268 21.7643 38.4268 21.7243V21.4577ZM37.8135 21.8177L37.7735 22.671H38.3468L38.3068 21.8043H37.8135" fill="#FFFF00"/>
<path d="M37.8135 21.8177L37.7735 22.671H38.3468L38.3068 21.8043H37.8135M38.3735 23.871C38.3735 23.431 38.0668 23.311 38.0668 23.311C38.0668 23.311 37.7601 23.4443 37.7601 23.871H38.3735ZM39.1468 22.671H36.9735C36.9335 22.671 36.8935 22.7243 36.8935 22.7777C36.8935 22.8177 36.9335 22.8577 36.9735 22.8577H39.1468C39.1868 22.8577 39.2268 22.8177 39.2268 22.7643C39.2268 22.7243 39.1868 22.6843 39.1468 22.6843V22.671ZM39.0935 22.871H37.0401C37.0001 22.871 36.9601 22.911 36.9601 22.9643C36.9601 23.0177 37.0001 23.0577 37.0401 23.0577H39.1068C39.1601 23.0577 39.1868 23.0177 39.1868 22.9643C39.1868 22.911 39.1601 22.871 39.1068 22.871H39.0935ZM38.4268 21.4577H38.2668V21.5643H38.1468V21.4577H37.9735V21.5777H37.8535V21.4443H37.6935V21.711C37.6935 21.7643 37.7201 21.791 37.7601 21.791H38.3468C38.3868 21.791 38.4268 21.7643 38.4268 21.7243V21.4577Z" stroke="black" stroke-width="0.0666669"/>
<path d="M38.5068 22.2178V22.6711H39.0402V22.2178H38.5068Z" fill="#FFFF00" stroke="black" stroke-width="0.0666669"/>
<path d="M37.0935 22.2178V22.6711H37.6268V22.2178H37.0935Z" fill="#FFFF00" stroke="black" stroke-width="0.0666669"/>
<path d="M39.1335 21.8711H38.9735V22.0044H38.8535V21.8711H38.6935V22.0044H38.5735V21.8711H38.4135V22.1378C38.4135 22.1911 38.4401 22.2178 38.4801 22.2178H39.0535C39.0747 22.2178 39.095 22.2093 39.1101 22.1943C39.1251 22.1793 39.1335 22.159 39.1335 22.1378V21.8711Z" fill="#FFFF00" stroke="black" stroke-width="0.0666669"/>
<path d="M37.7202 21.8711H37.5602V22.0044H37.4402V21.8711H37.2802V22.0044H37.1602V21.8711H37.0002V22.1378C37.0002 22.1911 37.0268 22.2178 37.0668 22.2178H37.6402C37.6614 22.2178 37.6817 22.2093 37.6967 22.1943C37.7117 22.1793 37.7202 22.159 37.7202 22.1378V21.8711Z" fill="#FFFF00" stroke="black" stroke-width="0.0666669"/>
<path d="M38.1202 22.0844C38.1202 22.0044 38.0002 22.0044 38.0002 22.0844V22.2977H38.1202V22.0844Z" fill="black"/>
<path d="M38.8268 22.3779C38.8268 22.2979 38.7202 22.2979 38.7202 22.3779V22.5379H38.8268V22.3779Z" fill="black"/>
<path d="M37.4135 22.3779C37.4135 22.2979 37.3068 22.2979 37.3068 22.3779V22.5379H37.4135V22.3779Z" fill="black"/>
<path d="M38.6135 30.0976C38.6001 29.3643 38.0801 29.1909 38.0801 29.1909C38.0668 29.1909 37.5068 29.3776 37.5068 30.1109H38.6135" fill="#FFFF00"/>
<path d="M39.0668 29.2043L39.1601 30.0443H38.6001C38.6001 29.3509 38.0668 29.2443 38.0668 29.2443C38.0535 29.2443 37.5335 29.3909 37.5201 30.0443H36.9601L37.0668 29.1909H39.0668V29.2043ZM39.2002 30.0576H36.9335C36.8935 30.0576 36.8535 30.0976 36.8535 30.1509C36.8535 30.2176 36.8935 30.2576 36.9335 30.2576H39.2002C39.2402 30.2576 39.2802 30.2176 39.2802 30.1509C39.2802 30.0976 39.2402 30.0576 39.1868 30.0576H39.2002Z" fill="#FFFF00" stroke="black" stroke-width="0.0666669"/>
<path d="M38.3735 30.0443C38.3735 29.6043 38.0668 29.4843 38.0668 29.4843C38.0668 29.4843 37.7601 29.6177 37.7601 30.0443H38.3735ZM39.1468 28.8443H36.9735C36.9335 28.8443 36.8935 28.8977 36.8935 28.951C36.8935 28.991 36.9335 29.031 36.9735 29.031H39.1468C39.1868 29.031 39.2268 28.991 39.2268 28.9377C39.2268 28.8977 39.1868 28.8577 39.1468 28.8577V28.8443ZM39.0935 29.0443H37.0401C37.0001 29.0443 36.9601 29.0843 36.9601 29.1377C36.9601 29.191 37.0001 29.231 37.0401 29.231H39.1068C39.1601 29.231 39.1868 29.191 39.1868 29.1377C39.1868 29.0843 39.1601 29.0443 39.1068 29.0443H39.0935ZM38.4268 27.631H38.2668V27.7377H38.1468V27.631H37.9735V27.751H37.8535V27.6177H37.6935V27.8843C37.6935 27.9377 37.7201 27.9643 37.7601 27.9643H38.3468C38.3868 27.9643 38.4268 27.9377 38.4268 27.8977V27.631ZM37.8135 27.991L37.7735 28.8443H38.3468L38.3068 27.9777H37.8135" fill="#FFFF00"/>
<path d="M37.8135 27.991L37.7735 28.8443H38.3468L38.3068 27.9777H37.8135M38.3735 30.0443C38.3735 29.6043 38.0668 29.4843 38.0668 29.4843C38.0668 29.4843 37.7601 29.6177 37.7601 30.0443H38.3735ZM39.1468 28.8443H36.9735C36.9335 28.8443 36.8935 28.8977 36.8935 28.951C36.8935 28.991 36.9335 29.031 36.9735 29.031H39.1468C39.1868 29.031 39.2268 28.991 39.2268 28.9377C39.2268 28.8977 39.1868 28.8577 39.1468 28.8577V28.8443ZM39.0935 29.0443H37.0401C37.0001 29.0443 36.9601 29.0843 36.9601 29.1377C36.9601 29.191 37.0001 29.231 37.0401 29.231H39.1068C39.1601 29.231 39.1868 29.191 39.1868 29.1377C39.1868 29.0843 39.1601 29.0443 39.1068 29.0443H39.0935ZM38.4268 27.631H38.2668V27.7377H38.1468V27.631H37.9735V27.751H37.8535V27.6177H37.6935V27.8843C37.6935 27.9377 37.7201 27.9643 37.7601 27.9643H38.3468C38.3868 27.9643 38.4268 27.9377 38.4268 27.8977V27.631Z" stroke="black" stroke-width="0.0666669"/>
<path d="M38.5068 28.3911V28.8444H39.0402V28.3911H38.5068Z" fill="#FFFF00" stroke="black" stroke-width="0.0666669"/>
<path d="M37.0935 28.3911V28.8444H37.6268V28.3911H37.0935Z" fill="#FFFF00" stroke="black" stroke-width="0.0666669"/>
<path d="M39.1335 28.0444H38.9735V28.1778H38.8535V28.0444H38.6935V28.1778H38.5735V28.0444H38.4135V28.3111C38.4135 28.3644 38.4401 28.3911 38.4801 28.3911H39.0535C39.0747 28.3911 39.095 28.3827 39.1101 28.3677C39.1251 28.3527 39.1335 28.3323 39.1335 28.3111V28.0444Z" fill="#FFFF00" stroke="black" stroke-width="0.0666669"/>
<path d="M37.7202 28.0444H37.5602V28.1778H37.4402V28.0444H37.2802V28.1778H37.1602V28.0444H37.0002V28.3111C37.0002 28.3644 37.0268 28.3911 37.0668 28.3911H37.6402C37.6614 28.3911 37.6817 28.3827 37.6967 28.3677C37.7117 28.3527 37.7202 28.3323 37.7202 28.3111V28.0444Z" fill="#FFFF00" stroke="black" stroke-width="0.0666669"/>
<path d="M38.1202 28.2578C38.1202 28.1778 38.0002 28.1778 38.0002 28.2578V28.4711H38.1202V28.2578Z" fill="black"/>
<path d="M38.8268 28.5512C38.8268 28.4712 38.7202 28.4712 38.7202 28.5512V28.7112H38.8268V28.5512Z" fill="black"/>
<path d="M37.4135 28.5512C37.4135 28.4712 37.3068 28.4712 37.3068 28.5512V28.7112H37.4135V28.5512Z" fill="black"/>
<path d="M36.2072 36.5319C36.7181 36.0057 36.4747 35.5146 36.4747 35.5146C36.4653 35.5052 35.9383 35.2393 35.4179 35.7561L36.1977 36.5413" fill="#FFFF00"/>
<path d="M37.1605 36.2237L36.6303 36.8819L36.2357 36.4845C36.7276 35.996 36.4275 35.5424 36.4275 35.5424C36.4181 35.5329 35.9476 35.2673 35.4747 35.7182L35.0801 35.3208L35.7607 34.7952L37.17 36.2143L37.1605 36.2237ZM36.649 36.9196L35.0518 35.3113C35.0236 35.2829 34.967 35.2827 34.9292 35.3203C34.8819 35.3673 34.8817 35.4238 34.9099 35.4522L36.5071 37.0606C36.5352 37.089 36.5918 37.0891 36.6391 37.0422C36.677 37.0046 36.6772 36.948 36.6396 36.9102L36.649 36.9196Z" fill="#FFFF00" stroke="black" stroke-width="0.0666669"/>
<path d="M36.0759 36.3237C36.3881 36.0136 36.2572 35.7115 36.2572 35.7115C36.2572 35.7115 35.9465 35.5878 35.6437 35.8884L36.0759 36.3237ZM37.4723 36.0268L35.9409 34.4847C35.9127 34.4563 35.8467 34.4655 35.8089 34.5031C35.7805 34.5313 35.7803 34.5878 35.8085 34.6162L37.3399 36.1584C37.3681 36.1867 37.4246 36.1869 37.4625 36.1494C37.4909 36.1212 37.4911 36.0646 37.4629 36.0362L37.4723 36.0268ZM37.2928 36.1299L35.846 34.6729C35.8178 34.6445 35.7612 34.6443 35.7234 34.6819C35.6855 34.7195 35.6853 34.7761 35.7135 34.8045L37.1698 36.2709C37.2074 36.3087 37.2545 36.2995 37.2924 36.2619C37.3302 36.2243 37.3398 36.1772 37.3022 36.1394L37.2928 36.1299ZM37.8259 34.661L37.7132 34.5474L37.6375 34.6226L37.553 34.5375L37.6286 34.4623L37.5065 34.3393L37.4214 34.4239L37.3368 34.3387L37.4314 34.2448L37.3187 34.1312L37.1294 34.3191C37.0916 34.3567 37.0915 34.3944 37.1197 34.4228L37.533 34.8391C37.5612 34.8675 37.6083 34.8771 37.6367 34.8489L37.8259 34.661ZM37.1383 34.4794L36.5046 35.0523L36.9086 35.4592L37.4954 34.8201L37.1478 34.47" fill="#FFFF00"/>
<path d="M37.1383 34.4794L36.5046 35.0523L36.9086 35.4592L37.4954 34.8201L37.1478 34.47M36.0759 36.3237C36.3881 36.0136 36.2572 35.7115 36.2572 35.7115C36.2572 35.7115 35.9465 35.5878 35.6437 35.8884L36.0759 36.3237ZM37.4723 36.0268L35.9409 34.4847C35.9127 34.4563 35.8467 34.4655 35.8089 34.5031C35.7805 34.5313 35.7803 34.5878 35.8085 34.6162L37.3399 36.1584C37.3681 36.1867 37.4246 36.1869 37.4625 36.1494C37.4909 36.1212 37.4911 36.0646 37.4629 36.0362L37.4723 36.0268ZM37.2928 36.1299L35.846 34.6729C35.8178 34.6445 35.7612 34.6443 35.7234 34.6819C35.6855 34.7195 35.6853 34.7761 35.7135 34.8045L37.1698 36.2709C37.2074 36.3087 37.2545 36.2995 37.2924 36.2619C37.3302 36.2243 37.3398 36.1772 37.3022 36.1394L37.2928 36.1299ZM37.8259 34.661L37.7132 34.5474L37.6375 34.6226L37.553 34.5375L37.6286 34.4623L37.5065 34.3393L37.4214 34.4239L37.3368 34.3387L37.4314 34.2448L37.3187 34.1312L37.1294 34.3191C37.0916 34.3567 37.0915 34.3944 37.1197 34.4228L37.533 34.8391C37.5612 34.8675 37.6083 34.8771 37.6367 34.8489L37.8259 34.661Z" stroke="black" stroke-width="0.0666669"/>
<path d="M37.3431 35.2534L37.0214 35.5728L37.3972 35.9513L37.7189 35.6318L37.3431 35.2534Z" fill="#FFFF00" stroke="black" stroke-width="0.0666669"/>
<path d="M36.3472 34.2505L36.0255 34.5699L36.4013 34.9483L36.723 34.6289L36.3472 34.2505Z" fill="#FFFF00" stroke="black" stroke-width="0.0666669"/>
<path d="M38.0306 35.4541L37.9178 35.3406L37.8232 35.4345L37.7387 35.3494L37.8333 35.2554L37.7205 35.1419L37.6259 35.2358L37.5414 35.1507L37.636 35.0567L37.5232 34.9432L37.334 35.1311C37.2962 35.1687 37.296 35.2064 37.3242 35.2348L37.7282 35.6416C37.7432 35.6567 37.7635 35.6652 37.7847 35.6652C37.8059 35.6653 37.8263 35.657 37.8414 35.642L38.0306 35.4541Z" fill="#FFFF00" stroke="black" stroke-width="0.0666669"/>
<path d="M37.0347 34.4512L36.922 34.3376L36.8274 34.4316L36.7428 34.3464L36.8374 34.2525L36.7247 34.139L36.6301 34.2329L36.5455 34.1478L36.6401 34.0538L36.5274 33.9403L36.3382 34.1282C36.3003 34.1658 36.3002 34.2035 36.3284 34.2319L36.7324 34.6387C36.7473 34.6537 36.7676 34.6622 36.7889 34.6623C36.8101 34.6624 36.8305 34.654 36.8455 34.6391L37.0347 34.4512Z" fill="#FFFF00" stroke="black" stroke-width="0.0666669"/>
<path d="M37.1652 34.8851C37.222 34.8287 37.1374 34.7435 37.0806 34.7999L36.9293 34.9502L37.0138 35.0354L37.1652 34.8851Z" fill="black"/>
<path d="M37.455 35.5935C37.5118 35.5372 37.4366 35.4615 37.3798 35.5179L37.2663 35.6306L37.3415 35.7063L37.455 35.5935Z" fill="black"/>
<path d="M36.4591 34.5906C36.5159 34.5342 36.4407 34.4586 36.384 34.5149L36.2704 34.6277L36.3456 34.7034L36.4591 34.5906Z" fill="black"/>
<path d="M31.0134 30.3243C31.011 30.6057 31.1159 30.8775 31.3067 31.0843C31.3958 31.1839 31.5046 31.2637 31.6263 31.3188C31.748 31.3739 31.8798 31.403 32.0134 31.4043C32.2934 31.4043 32.5467 31.271 32.7201 31.0843C32.9109 30.8775 33.0158 30.6057 33.0134 30.3243V28.8843H31.0134V30.3243Z" fill="#003399"/>
<path d="M31.4801 29.631C31.5905 29.631 31.6801 29.5414 31.6801 29.431C31.6801 29.3205 31.5905 29.231 31.4801 29.231C31.3696 29.231 31.2801 29.3205 31.2801 29.431C31.2801 29.5414 31.3696 29.631 31.4801 29.631Z" fill="white"/>
<path d="M32.5867 29.631C32.6972 29.631 32.7867 29.5414 32.7867 29.431C32.7867 29.3205 32.6972 29.231 32.5867 29.231C32.4763 29.231 32.3867 29.3205 32.3867 29.431C32.3867 29.5414 32.4763 29.631 32.5867 29.631Z" fill="white"/>
<path d="M32.0267 30.1642C32.1372 30.1642 32.2267 30.0746 32.2267 29.9642C32.2267 29.8537 32.1372 29.7642 32.0267 29.7642C31.9163 29.7642 31.8267 29.8537 31.8267 29.9642C31.8267 30.0746 31.9163 30.1642 32.0267 30.1642Z" fill="white"/>
<path d="M31.4801 30.7242C31.5905 30.7242 31.6801 30.6347 31.6801 30.5242C31.6801 30.4138 31.5905 30.3242 31.4801 30.3242C31.3696 30.3242 31.2801 30.4138 31.2801 30.5242C31.2801 30.6347 31.3696 30.7242 31.4801 30.7242Z" fill="white"/>
<path d="M32.5867 30.7242C32.6972 30.7242 32.7867 30.6347 32.7867 30.5242C32.7867 30.4138 32.6972 30.3242 32.5867 30.3242C32.4763 30.3242 32.3867 30.4138 32.3867 30.5242C32.3867 30.6347 32.4763 30.7242 32.5867 30.7242Z" fill="white"/>
<path d="M31.0134 26.8575C31.011 27.1389 31.1159 27.4107 31.3067 27.6175C31.3958 27.7171 31.5046 27.7969 31.6263 27.852C31.748 27.9071 31.8798 27.9362 32.0134 27.9375C32.2934 27.9375 32.5467 27.8042 32.7201 27.6175C32.9109 27.4107 33.0158 27.1389 33.0134 26.8575V25.4175H31.0134V26.8575Z" fill="#003399"/>
<path d="M31.4801 26.1642C31.5905 26.1642 31.6801 26.0746 31.6801 25.9642C31.6801 25.8537 31.5905 25.7642 31.4801 25.7642C31.3696 25.7642 31.2801 25.8537 31.2801 25.9642C31.2801 26.0746 31.3696 26.1642 31.4801 26.1642Z" fill="white"/>
<path d="M32.5867 26.1642C32.6972 26.1642 32.7867 26.0746 32.7867 25.9642C32.7867 25.8537 32.6972 25.7642 32.5867 25.7642C32.4763 25.7642 32.3867 25.8537 32.3867 25.9642C32.3867 26.0746 32.4763 26.1642 32.5867 26.1642Z" fill="white"/>
<path d="M32.0267 26.6974C32.1372 26.6974 32.2267 26.6078 32.2267 26.4974C32.2267 26.3869 32.1372 26.2974 32.0267 26.2974C31.9163 26.2974 31.8267 26.3869 31.8267 26.4974C31.8267 26.6078 31.9163 26.6974 32.0267 26.6974Z" fill="white"/>
<path d="M31.4801 27.2574C31.5905 27.2574 31.6801 27.1679 31.6801 27.0574C31.6801 26.947 31.5905 26.8574 31.4801 26.8574C31.3696 26.8574 31.2801 26.947 31.2801 27.0574C31.2801 27.1679 31.3696 27.2574 31.4801 27.2574Z" fill="white"/>
<path d="M32.5867 27.2574C32.6972 27.2574 32.7867 27.1679 32.7867 27.0574C32.7867 26.947 32.6972 26.8574 32.5867 26.8574C32.4763 26.8574 32.3867 26.947 32.3867 27.0574C32.3867 27.1679 32.4763 27.2574 32.5867 27.2574Z" fill="white"/>
<path d="M28.2401 30.3243C28.2377 30.6057 28.3426 30.8775 28.5334 31.0843C28.6225 31.1839 28.7313 31.2637 28.853 31.3188C28.9747 31.3739 29.1065 31.403 29.2401 31.4043C29.5201 31.4043 29.7734 31.271 29.9468 31.0843C30.1376 30.8775 30.2425 30.6057 30.2401 30.3243V28.8843H28.2401V30.3243Z" fill="#003399"/>
<path d="M28.7068 29.631C28.8172 29.631 28.9068 29.5414 28.9068 29.431C28.9068 29.3205 28.8172 29.231 28.7068 29.231C28.5963 29.231 28.5068 29.3205 28.5068 29.431C28.5068 29.5414 28.5963 29.631 28.7068 29.631Z" fill="white"/>
<path d="M29.8134 29.631C29.9239 29.631 30.0134 29.5414 30.0134 29.431C30.0134 29.3205 29.9239 29.231 29.8134 29.231C29.7029 29.231 29.6134 29.3205 29.6134 29.431C29.6134 29.5414 29.7029 29.631 29.8134 29.631Z" fill="white"/>
<path d="M29.2534 30.1642C29.3639 30.1642 29.4534 30.0746 29.4534 29.9642C29.4534 29.8537 29.3639 29.7642 29.2534 29.7642C29.1429 29.7642 29.0534 29.8537 29.0534 29.9642C29.0534 30.0746 29.1429 30.1642 29.2534 30.1642Z" fill="white"/>
<path d="M28.7068 30.7242C28.8172 30.7242 28.9068 30.6347 28.9068 30.5242C28.9068 30.4138 28.8172 30.3242 28.7068 30.3242C28.5963 30.3242 28.5068 30.4138 28.5068 30.5242C28.5068 30.6347 28.5963 30.7242 28.7068 30.7242Z" fill="white"/>
<path d="M29.8134 30.7242C29.9239 30.7242 30.0134 30.6347 30.0134 30.5242C30.0134 30.4138 29.9239 30.3242 29.8134 30.3242C29.7029 30.3242 29.6134 30.4138 29.6134 30.5242C29.6134 30.6347 29.7029 30.7242 29.8134 30.7242Z" fill="white"/>
<path d="M33.7868 30.3243C33.7844 30.6057 33.8893 30.8775 34.0801 31.0843C34.1692 31.1839 34.278 31.2637 34.3997 31.3188C34.5214 31.3739 34.6532 31.403 34.7868 31.4043C35.0668 31.4043 35.3201 31.271 35.4935 31.0843C35.6843 30.8775 35.7892 30.6057 35.7868 30.3243V28.8843H33.7868V30.3243Z" fill="#003399"/>
<path d="M34.2535 29.631C34.3639 29.631 34.4535 29.5414 34.4535 29.431C34.4535 29.3205 34.3639 29.231 34.2535 29.231C34.143 29.231 34.0535 29.3205 34.0535 29.431C34.0535 29.5414 34.143 29.631 34.2535 29.631Z" fill="white"/>
<path d="M35.3601 29.631C35.4706 29.631 35.5601 29.5414 35.5601 29.431C35.5601 29.3205 35.4706 29.231 35.3601 29.231C35.2496 29.231 35.1601 29.3205 35.1601 29.431C35.1601 29.5414 35.2496 29.631 35.3601 29.631Z" fill="white"/>
<path d="M34.8001 30.1642C34.9106 30.1642 35.0001 30.0746 35.0001 29.9642C35.0001 29.8537 34.9106 29.7642 34.8001 29.7642C34.6896 29.7642 34.6001 29.8537 34.6001 29.9642C34.6001 30.0746 34.6896 30.1642 34.8001 30.1642Z" fill="white"/>
<path d="M34.2535 30.7242C34.3639 30.7242 34.4535 30.6347 34.4535 30.5242C34.4535 30.4138 34.3639 30.3242 34.2535 30.3242C34.143 30.3242 34.0535 30.4138 34.0535 30.5242C34.0535 30.6347 34.143 30.7242 34.2535 30.7242Z" fill="white"/>
<path d="M35.3601 30.7242C35.4706 30.7242 35.5601 30.6347 35.5601 30.5242C35.5601 30.4138 35.4706 30.3242 35.3601 30.3242C35.2496 30.3242 35.1601 30.4138 35.1601 30.5242C35.1601 30.6347 35.2496 30.7242 35.3601 30.7242Z" fill="white"/>
<path d="M31.0134 33.7642C31.011 34.0456 31.1159 34.3174 31.3067 34.5242C31.3958 34.6238 31.5046 34.7037 31.6263 34.7588C31.748 34.8139 31.8798 34.843 32.0134 34.8442C32.2934 34.8442 32.5467 34.7109 32.7201 34.5242C32.9109 34.3174 33.0158 34.0456 33.0134 33.7642V32.3242H31.0134V33.7642Z" fill="#003399"/>
<path d="M31.4801 33.0709C31.5905 33.0709 31.6801 32.9814 31.6801 32.8709C31.6801 32.7604 31.5905 32.6709 31.4801 32.6709C31.3696 32.6709 31.2801 32.7604 31.2801 32.8709C31.2801 32.9814 31.3696 33.0709 31.4801 33.0709Z" fill="white"/>
<path d="M32.5867 33.0709C32.6972 33.0709 32.7867 32.9814 32.7867 32.8709C32.7867 32.7604 32.6972 32.6709 32.5867 32.6709C32.4763 32.6709 32.3867 32.7604 32.3867 32.8709C32.3867 32.9814 32.4763 33.0709 32.5867 33.0709Z" fill="white"/>
<path d="M32.0267 33.6041C32.1372 33.6041 32.2267 33.5146 32.2267 33.4041C32.2267 33.2936 32.1372 33.2041 32.0267 33.2041C31.9163 33.2041 31.8267 33.2936 31.8267 33.4041C31.8267 33.5146 31.9163 33.6041 32.0267 33.6041Z" fill="white"/>
<path d="M31.4801 34.1642C31.5905 34.1642 31.6801 34.0746 31.6801 33.9642C31.6801 33.8537 31.5905 33.7642 31.4801 33.7642C31.3696 33.7642 31.2801 33.8537 31.2801 33.9642C31.2801 34.0746 31.3696 34.1642 31.4801 34.1642Z" fill="white"/>
<path d="M32.5867 34.1642C32.6972 34.1642 32.7867 34.0746 32.7867 33.9642C32.7867 33.8537 32.6972 33.7642 32.5867 33.7642C32.4763 33.7642 32.3867 33.8537 32.3867 33.9642C32.3867 34.0746 32.4763 34.1642 32.5867 34.1642Z" fill="white"/>
</g>
<defs>
<clipPath id="clip0_2098_1921">
<rect width="80" height="60" fill="white"/>
</clipPath>
</defs>
</svg>
